<svg xmlns="http://www.w3.org/2000/svg" xmlns:xlink="http://www.w3.org/1999/xlink" width="382" height="562" fill="none" viewBox="0 0 382 562">
  <g filter="url(#a)">
    <rect width="378" height="551.301" x="2" y="5.477" fill="url(#b)" rx="80"/>
    <rect width="380" height="553.301" x="1" y="4.477" stroke="url(#c)" stroke-width="2" rx="81"/>
    <rect width="380" height="553.301" x="1" y="4.477" stroke="url(#d)" stroke-width="2" rx="81"/>
    <rect width="380" height="553.301" x="1" y="4.477" stroke="url(#e)" stroke-opacity=".5" stroke-width="2" rx="81"/>
  </g>
  <rect width="378" height="561.341" x="2" fill="url(#f)" fill-opacity=".1" rx="80" style="mix-blend-mode:overlay"/>
  <circle cx="224.515" cy="82.587" r="56.587" fill="#FFB8A1"/>
  <ellipse cx="224.515" cy="177.087" fill="#FFB8A1" rx="72.431" ry="26.596"/>
  <g filter="url(#g)">
    <circle cx="187.168" cy="93.904" r="56.587" fill="#FF5620" fill-opacity=".2"/>
    <ellipse cx="187.168" cy="191.8" fill="#FF5620" fill-opacity=".2" rx="70.168" ry="31.123"/>
  </g>
  <path fill="#000" d="M156.628 255.8c3.624 0 6.396.66 8.316 1.98 1.944 1.32 2.916 3.384 2.916 6.192 0 1.464-.264 2.724-.792 3.78a6.527 6.527 0 0 1-2.232 2.556c-.984.648-2.184 1.128-3.6 1.44-1.416.312-3.036.468-4.86.468h-2.268V281h-4.536v-24.588c1.056-.24 2.22-.396 3.492-.468a48.546 48.546 0 0 1 3.564-.144Zm.324 3.924c-1.152 0-2.1.036-2.844.108v8.496h2.196c2.184 0 3.864-.3 5.04-.9 1.176-.624 1.764-1.788 1.764-3.492 0-.816-.156-1.5-.468-2.052a3.363 3.363 0 0 0-1.296-1.296c-.552-.312-1.212-.528-1.98-.648a12.698 12.698 0 0 0-2.412-.216Zm20.5 18.216c1.344 0 2.364-.072 3.06-.216V272.9a8.474 8.474 0 0 0-1.044-.216 10.432 10.432 0 0 0-2.988 0c-.48.072-.924.204-1.332.396a2.394 2.394 0 0 0-.936.828c-.24.336-.36.768-.36 1.296 0 1.032.324 1.752.972 2.16.648.384 1.524.576 2.628.576Zm-.36-16.236c1.44 0 2.652.18 3.636.54.984.36 1.764.864 2.34 1.512.6.648 1.02 1.44 1.26 2.376.264.912.396 1.92.396 3.024v11.412c-.672.144-1.692.312-3.06.504-1.344.216-2.868.324-4.572.324-1.128 0-2.16-.108-3.096-.324-.936-.216-1.74-.564-2.412-1.044a5.154 5.154 0 0 1-1.548-1.872c-.36-.768-.54-1.716-.54-2.844 0-1.08.204-1.992.612-2.736a5.173 5.173 0 0 1 1.728-1.8c.72-.48 1.548-.816 2.484-1.008.96-.216 1.956-.324 2.988-.324.48 0 .984.036 1.512.108.528.048 1.092.144 1.692.288v-.72c0-.504-.06-.984-.18-1.44a2.743 2.743 0 0 0-.648-1.188c-.288-.36-.684-.636-1.188-.828-.48-.192-1.092-.288-1.836-.288-1.008 0-1.932.072-2.772.216-.84.144-1.524.312-2.052.504l-.54-3.528c.552-.192 1.356-.384 2.412-.576a18.915 18.915 0 0 1 3.384-.288Zm23.335 4.392c-.36-.12-.864-.24-1.512-.36-.624-.144-1.356-.216-2.196-.216-.48 0-.996.048-1.548.144-.528.096-.9.18-1.116.252V281h-4.356v-17.928c.84-.312 1.884-.6 3.132-.864 1.272-.288 2.676-.432 4.212-.432.288 0 .624.024 1.008.072.384.024.768.072 1.152.144.384.048.756.12 1.116.216.36.072.648.144.864.216l-.756 3.672Zm2.387 5.58c0-1.656.24-3.108.72-4.356.504-1.248 1.164-2.28 1.98-3.096a7.8 7.8 0 0 1 2.808-1.872 8.485 8.485 0 0 1 3.24-.648c2.592 0 4.608.804 6.048 2.412 1.464 1.608 2.196 4.008 2.196 7.2 0 .24-.012.516-.036.828a8 8 0 0 1-.036.792h-12.42c.12 1.512.648 2.688 1.584 3.528.96.816 2.34 1.224 4.14 1.224 1.056 0 2.016-.096 2.88-.288.888-.192 1.584-.396 2.088-.612l.576 3.564a8.04 8.04 0 0 1-1.008.396c-.408.12-.888.228-1.44.324-.528.12-1.104.216-1.728.288-.624.072-1.26.108-1.908.108-1.656 0-3.096-.24-4.32-.72-1.224-.504-2.232-1.188-3.024-2.052a8.607 8.607 0 0 1-1.764-3.096c-.384-1.2-.576-2.508-.576-3.924Zm12.636-1.944c0-.6-.084-1.164-.252-1.692a3.763 3.763 0 0 0-.756-1.404 3.04 3.04 0 0 0-1.188-.936c-.456-.24-1.008-.36-1.656-.36-.672 0-1.26.132-1.764.396-.504.24-.936.564-1.296.972-.336.408-.6.876-.792 1.404a7.605 7.605 0 0 0-.396 1.62h8.1Zm8.615-6.948c.84-.24 1.932-.468 3.276-.684 1.344-.216 2.832-.324 4.464-.324 1.536 0 2.82.216 3.852.648 1.032.408 1.848.996 2.448 1.764.624.744 1.056 1.656 1.296 2.736.264 1.056.396 2.22.396 3.492V281h-4.356v-9.9c0-1.008-.072-1.86-.216-2.556-.12-.72-.336-1.296-.648-1.728a2.354 2.354 0 0 0-1.224-.972c-.504-.216-1.128-.324-1.872-.324-.552 0-1.128.036-1.728.108-.6.072-1.044.132-1.332.18V281h-4.356v-18.216Zm20.482-5.58 4.356-.72v5.688h6.696v3.636h-6.696v7.668c0 1.512.24 2.592.72 3.24.48.648 1.296.972 2.448.972.792 0 1.488-.084 2.088-.252a13.832 13.832 0 0 0 1.476-.468l.72 3.456c-.504.216-1.164.432-1.98.648-.816.24-1.776.36-2.88.36-1.344 0-2.472-.18-3.384-.54-.888-.36-1.596-.876-2.124-1.548-.528-.696-.9-1.524-1.116-2.484-.216-.984-.324-2.1-.324-3.348v-16.308Zm-115.541 74.104c.816 0 1.41-.138 1.782-.414.372-.276.558-.666.558-1.17 0-.3-.066-.558-.198-.774-.12-.216-.3-.408-.54-.576a3.736 3.736 0 0 0-.846-.486c-.336-.156-.72-.306-1.152-.45a19.682 19.682 0 0 1-1.26-.504 4.662 4.662 0 0 1-1.062-.702 3.39 3.39 0 0 1-.738-.99c-.18-.384-.27-.846-.27-1.386 0-1.128.39-2.01 1.17-2.646.78-.648 1.842-.972 3.186-.972.78 0 1.47.09 2.07.27.612.168 1.092.354 1.44.558l-.702 1.836a5.352 5.352 0 0 0-1.35-.522c-.48-.12-.978-.18-1.494-.18-.612 0-1.092.126-1.44.378-.336.252-.504.606-.504 1.062 0 .276.054.516.162.72.12.192.282.366.486.522.216.156.462.3.738.432.288.132.6.258.936.378.588.216 1.11.438 1.566.666.468.216.858.48 1.17.792.324.3.57.66.738 1.08.168.408.252.906.252 1.494 0 1.128-.402 2.004-1.206 2.628-.792.612-1.956.918-3.492.918-.516 0-.99-.036-1.422-.108a8.546 8.546 0 0 1-1.134-.234 9.796 9.796 0 0 1-.846-.288 6.362 6.362 0 0 1-.576-.288l.666-1.854c.324.18.762.36 1.314.54.552.18 1.218.27 1.998.27Zm6.3-10.206 2.178-.36v2.844h3.348v1.818h-3.348v3.834c0 .756.12 1.296.36 1.62.24.324.648.486 1.224.486.396 0 .744-.042 1.044-.126.312-.084.558-.162.738-.234l.36 1.728a7.379 7.379 0 0 1-.99.324c-.408.12-.888.18-1.44.18-.672 0-1.236-.09-1.692-.27a2.522 2.522 0 0 1-1.062-.774 3.18 3.18 0 0 1-.558-1.242 7.843 7.843 0 0 1-.162-1.674v-8.154Zm10.764 10.368c.672 0 1.182-.036 1.53-.108v-2.412a4.866 4.866 0 0 0-1.278-.162c-.24 0-.486.018-.738.054-.24.036-.462.102-.666.198a1.197 1.197 0 0 0-.468.414c-.12.168-.18.384-.18.648 0 .516.162.876.486 1.08.324.192.762.288 1.314.288Zm-.18-8.118c.72 0 1.326.09 1.818.27.492.18.882.432 1.17.756.3.324.51.72.63 1.188.132.456.198.96.198 1.512v5.706c-.336.072-.846.156-1.53.252a14.51 14.51 0 0 1-2.286.162c-.564 0-1.08-.054-1.548-.162a3.344 3.344 0 0 1-1.206-.522 2.577 2.577 0 0 1-.774-.936c-.18-.384-.27-.858-.27-1.422 0-.54.102-.996.306-1.368.216-.372.504-.672.864-.9.36-.24.774-.408 1.242-.504.48-.108.978-.162 1.494-.162.24 0 .492.018.756.054.264.024.546.072.846.144v-.36c0-.252-.03-.492-.09-.72a1.371 1.371 0 0 0-.324-.594 1.36 1.36 0 0 0-.594-.414c-.24-.096-.546-.144-.918-.144-.504 0-.966.036-1.386.108-.42.072-.762.156-1.026.252l-.27-1.764c.276-.096.678-.192 1.206-.288a9.457 9.457 0 0 1 1.692-.144Zm11.667 2.196c-.18-.06-.432-.12-.756-.18a4.927 4.927 0 0 0-1.872-.036c-.264.048-.45.09-.558.126V333h-2.178v-8.964c.42-.156.942-.3 1.566-.432a9.546 9.546 0 0 1 2.106-.216c.144 0 .312.012.504.036.192.012.384.036.576.072.192.024.378.06.558.108.18.036.324.072.432.108l-.378 1.836Zm1.608-4.446 2.178-.36v2.844h3.348v1.818h-3.348v3.834c0 .756.12 1.296.36 1.62.24.324.648.486 1.224.486.396 0 .744-.042 1.044-.126.312-.084.558-.162.738-.234l.36 1.728a7.379 7.379 0 0 1-.99.324c-.408.12-.888.18-1.44.18-.672 0-1.236-.09-1.692-.27a2.522 2.522 0 0 1-1.062-.774 3.18 3.18 0 0 1-.558-1.242 7.843 7.843 0 0 1-.162-1.674v-8.154ZM170.637 333v-13.608l2.178-.36v4.662c.24-.084.516-.156.828-.216.324-.06.642-.09.954-.09.756 0 1.38.108 1.872.324.504.204.906.498 1.206.882.3.372.51.822.63 1.35.132.528.198 1.116.198 1.764V333h-2.178v-4.95c0-.504-.036-.93-.108-1.278-.06-.36-.168-.648-.324-.864a1.183 1.183 0 0 0-.594-.486c-.252-.108-.564-.162-.936-.162-.288 0-.582.03-.882.09-.3.06-.522.114-.666.162V333h-2.178Zm9.775-4.662c0-.828.12-1.554.36-2.178.252-.624.582-1.14.99-1.548a3.9 3.9 0 0 1 1.404-.936 4.242 4.242 0 0 1 1.62-.324c1.296 0 2.304.402 3.024 1.206.732.804 1.098 2.004 1.098 3.6 0 .12-.006.258-.018.414a4 4 0 0 1-.018.396h-6.21c.06.756.324 1.344.792 1.764.48.408 1.17.612 2.07.612a6.65 6.65 0 0 0 1.44-.144 5.94 5.94 0 0 0 1.044-.306l.288 1.782a4.02 4.02 0 0 1-.504.198c-.204.06-.444.114-.72.162a8.317 8.317 0 0 1-1.818.198c-.828 0-1.548-.12-2.16-.36-.612-.252-1.116-.594-1.512-1.026a4.303 4.303 0 0 1-.882-1.548 6.407 6.407 0 0 1-.288-1.962Zm6.318-.972c0-.3-.042-.582-.126-.846a1.882 1.882 0 0 0-.378-.702 1.52 1.52 0 0 0-.594-.468 1.758 1.758 0 0 0-.828-.18c-.336 0-.63.066-.882.198-.252.12-.468.282-.648.486-.168.204-.3.438-.396.702a3.803 3.803 0 0 0-.198.81h4.05Zm7.583 5.814c-.648-.012-1.188-.084-1.62-.216-.42-.132-.756-.318-1.008-.558a2.147 2.147 0 0 1-.54-.918 5.052 5.052 0 0 1-.144-1.26v-10.836l2.178-.36v10.782c0 .264.018.486.054.666.048.18.126.336.234.468.108.12.252.216.432.288.192.06.432.108.72.144l-.306 1.8Zm8.134-4.842c0-.972-.222-1.728-.666-2.268-.432-.54-1.134-.81-2.106-.81-.204 0-.42.012-.648.036a3.047 3.047 0 0 0-.648.108v5.382c.192.132.444.258.756.378.324.108.666.162 1.026.162.792 0 1.368-.27 1.728-.81.372-.54.558-1.266.558-2.178Zm2.232-.036c0 .72-.096 1.38-.288 1.98-.18.6-.444 1.116-.792 1.548a3.54 3.54 0 0 1-1.314 1.008c-.516.24-1.104.36-1.764.36-.444 0-.852-.054-1.224-.162a4.574 4.574 0 0 1-.918-.36v3.654h-2.178v-12.438c.444-.12.99-.234 1.638-.342a12.476 12.476 0 0 1 2.052-.162c.744 0 1.41.114 1.998.342a4.023 4.023 0 0 1 1.494.99c.42.42.738.936.954 1.548.228.6.342 1.278.342 2.034ZM208.94 333h-2.178v-9.414h2.178V333Zm.234-12.168c0 .408-.132.732-.396.972s-.576.36-.936.36c-.372 0-.69-.12-.954-.36s-.396-.564-.396-.972c0-.42.132-.75.396-.99s.582-.36.954-.36c.36 0 .672.12.936.36s.396.57.396.99Zm2.364 3.06c.42-.12.966-.234 1.638-.342a14.123 14.123 0 0 1 2.232-.162c.768 0 1.41.108 1.926.324.516.204.924.498 1.224.882.312.372.528.828.648 1.368.132.528.198 1.11.198 1.746V333h-2.178v-4.95c0-.504-.036-.93-.108-1.278-.06-.36-.168-.648-.324-.864a1.177 1.177 0 0 0-.612-.486c-.252-.108-.564-.162-.936-.162-.276 0-.564.018-.864.054-.3.036-.522.066-.666.09V333h-2.178v-9.108Zm12.06 4.158c0 .924.198 1.602.594 2.034.408.42.93.63 1.566.63.348 0 .672-.048.972-.144.312-.096.564-.21.756-.342v-4.878a4.897 4.897 0 0 0-.576-.09 5.702 5.702 0 0 0-.864-.054c-.792 0-1.398.264-1.818.792-.42.516-.63 1.2-.63 2.052Zm6.066 3.996c0 1.5-.384 2.598-1.152 3.294-.756.696-1.92 1.044-3.492 1.044-.576 0-1.14-.048-1.692-.144a9.445 9.445 0 0 1-1.476-.378l.396-1.854c.372.156.792.282 1.26.378.48.096.996.144 1.548.144.876 0 1.5-.18 1.872-.54.372-.36.558-.894.558-1.602v-.36a5.556 5.556 0 0 1-.864.324c-.348.108-.75.162-1.206.162-.6 0-1.152-.096-1.656-.288a3.554 3.554 0 0 1-1.278-.846 4.059 4.059 0 0 1-.828-1.386c-.192-.564-.288-1.212-.288-1.944 0-.684.102-1.314.306-1.89a4.212 4.212 0 0 1 .918-1.476c.408-.408.9-.726 1.476-.954.576-.228 1.23-.342 1.962-.342.708 0 1.38.054 2.016.162.636.108 1.176.222 1.62.342v8.154Zm14.298-8.46c-.972 3.576-2.1 6.816-3.384 9.72a9.772 9.772 0 0 1-.738 1.386 4.111 4.111 0 0 1-.846.954 2.89 2.89 0 0 1-1.044.54c-.384.12-.828.18-1.332.18-.336 0-.672-.036-1.008-.108a3.354 3.354 0 0 1-.738-.234l.396-1.746c.432.168.858.252 1.278.252.564 0 1.002-.138 1.314-.414.324-.264.606-.678.846-1.242a52.385 52.385 0 0 1-1.98-4.32 49.163 49.163 0 0 1-1.674-4.968h2.322c.12.504.264 1.05.432 1.638.18.588.372 1.188.576 1.8.204.6.42 1.2.648 1.8.228.6.456 1.158.684 1.674a49.547 49.547 0 0 0 1.08-3.402c.336-1.212.642-2.382.918-3.51h2.25Zm9.982 4.698c0 .744-.108 1.422-.324 2.034a4.502 4.502 0 0 1-.918 1.566 4.108 4.108 0 0 1-1.44 1.008c-.552.24-1.164.36-1.836.36-.672 0-1.284-.12-1.836-.36a4.149 4.149 0 0 1-1.422-1.008 4.73 4.73 0 0 1-.936-1.566 6.078 6.078 0 0 1-.324-2.034c0-.744.108-1.416.324-2.016a4.73 4.73 0 0 1 .936-1.566 4.124 4.124 0 0 1 1.44-.99 4.51 4.51 0 0 1 1.818-.36c.66 0 1.266.12 1.818.36a3.915 3.915 0 0 1 1.44.99c.396.432.702.954.918 1.566.228.6.342 1.272.342 2.016Zm-2.232 0c0-.936-.204-1.674-.612-2.214-.396-.552-.954-.828-1.674-.828s-1.284.276-1.692.828c-.396.54-.594 1.278-.594 2.214 0 .948.198 1.698.594 2.25.408.552.972.828 1.692.828s1.278-.276 1.674-.828c.408-.552.612-1.302.612-2.25Zm12.017 4.428c-.42.108-.966.216-1.638.324-.672.12-1.41.18-2.214.18-.756 0-1.392-.108-1.908-.324a3.133 3.133 0 0 1-1.224-.9c-.3-.384-.516-.84-.648-1.368a7.42 7.42 0 0 1-.198-1.764v-5.274h2.178v4.932c0 1.008.144 1.728.432 2.16.3.432.816.648 1.548.648.264 0 .54-.012.828-.036.3-.024.522-.054.666-.09v-7.614h2.178v9.126Zm7.957-7.164c-.18-.06-.432-.12-.756-.18a4.927 4.927 0 0 0-1.872-.036c-.264.048-.45.09-.558.126V333h-2.178v-8.964c.42-.156.942-.3 1.566-.432a9.546 9.546 0 0 1 2.106-.216c.144 0 .312.012.504.036.192.012.384.036.576.072.192.024.378.06.558.108.18.036.324.072.432.108l-.378 1.836Zm-162.164 23.754c0-.696.108-1.344.324-1.944.216-.612.522-1.14.918-1.584a4.34 4.34 0 0 1 1.476-1.044c.576-.252 1.224-.378 1.944-.378a6.59 6.59 0 0 1 2.52.486l-.468 1.782a4.89 4.89 0 0 0-.864-.27 4.477 4.477 0 0 0-1.008-.108c-.852 0-1.5.27-1.944.81-.444.528-.666 1.278-.666 2.25 0 .936.21 1.68.63 2.232.42.54 1.128.81 2.124.81.372 0 .738-.036 1.098-.108a5.16 5.16 0 0 0 .936-.27l.306 1.8c-.24.12-.606.228-1.098.324-.48.096-.978.144-1.494.144-.804 0-1.506-.12-2.106-.36a4.23 4.23 0 0 1-1.476-1.026 4.424 4.424 0 0 1-.864-1.566 6.581 6.581 0 0 1-.288-1.98Zm8.832 4.698v-13.608l2.178-.36v4.662c.24-.084.516-.156.828-.216.324-.06.642-.09.954-.09.756 0 1.38.108 1.872.324.504.204.906.498 1.206.882.3.372.51.822.63 1.35.132.528.198 1.116.198 1.764V354h-2.178v-4.95c0-.504-.036-.93-.108-1.278-.06-.36-.168-.648-.324-.864a1.183 1.183 0 0 0-.594-.486c-.252-.108-.564-.162-.936-.162-.288 0-.582.03-.882.09-.3.06-.522.114-.666.162V354h-2.178Zm12.493 0h-2.178v-9.414h2.178V354Zm.234-12.168c0 .408-.132.732-.396.972s-.576.36-.936.36c-.372 0-.69-.12-.954-.36s-.396-.564-.396-.972c0-.42.132-.75.396-.99s.582-.36.954-.36c.36 0 .672.12.936.36s.396.57.396.99Zm5.641 12.348c-.648-.012-1.188-.084-1.62-.216-.42-.132-.756-.318-1.008-.558a2.147 2.147 0 0 1-.54-.918 5.052 5.052 0 0 1-.144-1.26v-10.836l2.178-.36v10.782c0 .264.018.486.054.666.048.18.126.336.234.468.108.12.252.216.432.288.192.06.432.108.72.144l-.306 1.8Zm3.597-4.914c0 .96.228 1.716.684 2.268.456.54 1.086.81 1.89.81.348 0 .642-.012.882-.036a7.62 7.62 0 0 0 .612-.108v-5.4a3.123 3.123 0 0 0-.774-.36 2.784 2.784 0 0 0-1.008-.18c-.792 0-1.374.27-1.746.81-.36.54-.54 1.272-.54 2.196Zm6.246 4.446c-.432.132-.978.252-1.638.36-.648.108-1.332.162-2.052.162-.744 0-1.41-.114-1.998-.342a4.314 4.314 0 0 1-1.512-.972 4.61 4.61 0 0 1-.954-1.548c-.216-.612-.324-1.296-.324-2.052 0-.744.09-1.416.27-2.016a4.534 4.534 0 0 1 .828-1.566c.36-.432.798-.762 1.314-.99.516-.24 1.11-.36 1.782-.36.456 0 .858.054 1.206.162.348.108.648.228.9.36v-4.518l2.178-.36v13.68Zm7.951-7.164c-.18-.06-.432-.12-.756-.18a4.927 4.927 0 0 0-1.872-.036c-.264.048-.45.09-.558.126V354h-2.178v-8.964c.42-.156.942-.3 1.566-.432a9.546 9.546 0 0 1 2.106-.216c.144 0 .312.012.504.036.192.012.384.036.576.072.192.024.378.06.558.108.18.036.324.072.432.108l-.378 1.836Zm1.194 2.79c0-.828.12-1.554.36-2.178.252-.624.582-1.14.99-1.548a3.9 3.9 0 0 1 1.404-.936 4.242 4.242 0 0 1 1.62-.324c1.296 0 2.304.402 3.024 1.206.732.804 1.098 2.004 1.098 3.6 0 .12-.006.258-.018.414a4 4 0 0 1-.018.396h-6.21c.06.756.324 1.344.792 1.764.48.408 1.17.612 2.07.612a6.65 6.65 0 0 0 1.44-.144 5.94 5.94 0 0 0 1.044-.306l.288 1.782a4.02 4.02 0 0 1-.504.198c-.204.06-.444.114-.72.162a8.317 8.317 0 0 1-1.818.198c-.828 0-1.548-.12-2.16-.36-.612-.252-1.116-.594-1.512-1.026a4.303 4.303 0 0 1-.882-1.548 6.407 6.407 0 0 1-.288-1.962Zm6.318-.972c0-.3-.042-.582-.126-.846a1.882 1.882 0 0 0-.378-.702 1.52 1.52 0 0 0-.594-.468 1.758 1.758 0 0 0-.828-.18c-.336 0-.63.066-.882.198-.252.12-.468.282-.648.486-.168.204-.3.438-.396.702a3.803 3.803 0 0 0-.198.81h4.05Zm4.307-3.474c.42-.12.966-.234 1.638-.342a14.123 14.123 0 0 1 2.232-.162c.768 0 1.41.108 1.926.324.516.204.924.498 1.224.882.312.372.528.828.648 1.368.132.528.198 1.11.198 1.746V354h-2.178v-4.95c0-.504-.036-.93-.108-1.278-.06-.36-.168-.648-.324-.864a1.177 1.177 0 0 0-.612-.486c-.252-.108-.564-.162-.936-.162-.276 0-.564.018-.864.054-.3.036-.522.066-.666.09V354h-2.178v-9.108ZM180.706 354v-13.608l2.178-.36v4.662c.24-.084.516-.156.828-.216.324-.06.642-.09.954-.09.756 0 1.38.108 1.872.324.504.204.906.498 1.206.882.3.372.51.822.63 1.35.132.528.198 1.116.198 1.764V354h-2.178v-4.95c0-.504-.036-.93-.108-1.278-.06-.36-.168-.648-.324-.864a1.183 1.183 0 0 0-.594-.486c-.252-.108-.564-.162-.936-.162-.288 0-.582.03-.882.09-.3.06-.522.114-.666.162V354h-2.178Zm13.608-1.53c.672 0 1.182-.036 1.53-.108v-2.412a4.866 4.866 0 0 0-1.278-.162c-.24 0-.486.018-.738.054-.24.036-.462.102-.666.198a1.197 1.197 0 0 0-.468.414c-.12.168-.18.384-.18.648 0 .516.162.876.486 1.08.324.192.762.288 1.314.288Zm-.18-8.118c.72 0 1.326.09 1.818.27.492.18.882.432 1.17.756.3.324.51.72.63 1.188.132.456.198.96.198 1.512v5.706c-.336.072-.846.156-1.53.252a14.51 14.51 0 0 1-2.286.162c-.564 0-1.08-.054-1.548-.162a3.344 3.344 0 0 1-1.206-.522 2.577 2.577 0 0 1-.774-.936c-.18-.384-.27-.858-.27-1.422 0-.54.102-.996.306-1.368.216-.372.504-.672.864-.9.36-.24.774-.408 1.242-.504.48-.108.978-.162 1.494-.162.24 0 .492.018.756.054.264.024.546.072.846.144v-.36c0-.252-.03-.492-.09-.72a1.371 1.371 0 0 0-.324-.594 1.36 1.36 0 0 0-.594-.414c-.24-.096-.546-.144-.918-.144-.504 0-.966.036-1.386.108-.42.072-.762.156-1.026.252l-.27-1.764c.276-.096.678-.192 1.206-.288a9.457 9.457 0 0 1 1.692-.144Zm8.487 9.648a64.33 64.33 0 0 1-1.854-4.248 56.667 56.667 0 0 1-1.71-5.166h2.322c.132.528.282 1.098.45 1.71.18.6.366 1.206.558 1.818.204.6.408 1.188.612 1.764.216.564.414 1.074.594 1.53.18-.456.372-.966.576-1.53a60.68 60.68 0 0 0 .594-1.764c.204-.612.396-1.218.576-1.818.18-.612.336-1.182.468-1.71h2.25a53.145 53.145 0 0 1-1.728 5.166 58.942 58.942 0 0 1-1.836 4.248h-1.872Zm6.149-4.662c0-.828.12-1.554.36-2.178.252-.624.582-1.14.99-1.548a3.9 3.9 0 0 1 1.404-.936 4.242 4.242 0 0 1 1.62-.324c1.296 0 2.304.402 3.024 1.206.732.804 1.098 2.004 1.098 3.6 0 .12-.006.258-.018.414a4 4 0 0 1-.018.396h-6.21c.06.756.324 1.344.792 1.764.48.408 1.17.612 2.07.612a6.65 6.65 0 0 0 1.44-.144 5.94 5.94 0 0 0 1.044-.306l.288 1.782a4.02 4.02 0 0 1-.504.198c-.204.06-.444.114-.72.162a8.317 8.317 0 0 1-1.818.198c-.828 0-1.548-.12-2.16-.36-.612-.252-1.116-.594-1.512-1.026a4.303 4.303 0 0 1-.882-1.548 6.407 6.407 0 0 1-.288-1.962Zm6.318-.972c0-.3-.042-.582-.126-.846a1.882 1.882 0 0 0-.378-.702 1.52 1.52 0 0 0-.594-.468 1.758 1.758 0 0 0-.828-.18c-.336 0-.63.066-.882.198-.252.12-.468.282-.648.486-.168.204-.3.438-.396.702a3.803 3.803 0 0 0-.198.81h4.05Zm11.641 4.104c.672 0 1.182-.036 1.53-.108v-2.412a4.866 4.866 0 0 0-1.278-.162c-.24 0-.486.018-.738.054-.24.036-.462.102-.666.198a1.197 1.197 0 0 0-.468.414c-.12.168-.18.384-.18.648 0 .516.162.876.486 1.08.324.192.762.288 1.314.288Zm-.18-8.118c.72 0 1.326.09 1.818.27.492.18.882.432 1.17.756.3.324.51.72.63 1.188.132.456.198.96.198 1.512v5.706c-.336.072-.846.156-1.53.252a14.51 14.51 0 0 1-2.286.162c-.564 0-1.08-.054-1.548-.162a3.344 3.344 0 0 1-1.206-.522 2.577 2.577 0 0 1-.774-.936c-.18-.384-.27-.858-.27-1.422 0-.54.102-.996.306-1.368.216-.372.504-.672.864-.9.36-.24.774-.408 1.242-.504.48-.108.978-.162 1.494-.162.24 0 .492.018.756.054.264.024.546.072.846.144v-.36c0-.252-.03-.492-.09-.72a1.371 1.371 0 0 0-.324-.594 1.36 1.36 0 0 0-.594-.414c-.24-.096-.546-.144-.918-.144-.504 0-.966.036-1.386.108-.42.072-.762.156-1.026.252l-.27-1.764c.276-.096.678-.192 1.206-.288a9.457 9.457 0 0 1 1.692-.144Zm16.57 4.914c0-.924-.186-1.656-.558-2.196-.36-.54-.936-.81-1.728-.81-.36 0-.702.054-1.026.162a3.18 3.18 0 0 0-.756.36v5.418c.156.036.354.072.594.108.252.024.552.036.9.036.804 0 1.434-.27 1.89-.81.456-.552.684-1.308.684-2.268Zm2.232.036c0 .756-.114 1.44-.342 2.052a4.258 4.258 0 0 1-.954 1.548 4.023 4.023 0 0 1-1.494.99c-.588.228-1.254.342-1.998.342-.72 0-1.41-.054-2.07-.162a12.962 12.962 0 0 1-1.62-.36v-13.32l2.178-.36v4.878c.252-.132.558-.252.918-.36.372-.108.78-.162 1.224-.162.66 0 1.248.12 1.764.36.528.228.966.558 1.314.99.348.432.612.954.792 1.566.192.6.288 1.266.288 1.998Zm1.543.036c0-.828.12-1.554.36-2.178.252-.624.582-1.14.99-1.548a3.9 3.9 0 0 1 1.404-.936 4.242 4.242 0 0 1 1.62-.324c1.296 0 2.304.402 3.024 1.206.732.804 1.098 2.004 1.098 3.6 0 .12-.006.258-.018.414a4 4 0 0 1-.018.396h-6.21c.06.756.324 1.344.792 1.764.48.408 1.17.612 2.07.612a6.65 6.65 0 0 0 1.44-.144 5.94 5.94 0 0 0 1.044-.306l.288 1.782a4.02 4.02 0 0 1-.504.198c-.204.06-.444.114-.72.162a8.317 8.317 0 0 1-1.818.198c-.828 0-1.548-.12-2.16-.36-.612-.252-1.116-.594-1.512-1.026a4.303 4.303 0 0 1-.882-1.548 6.407 6.407 0 0 1-.288-1.962Zm6.318-.972c0-.3-.042-.582-.126-.846a1.882 1.882 0 0 0-.378-.702 1.52 1.52 0 0 0-.594-.468 1.758 1.758 0 0 0-.828-.18c-.336 0-.63.066-.882.198-.252.12-.468.282-.648.486-.168.204-.3.438-.396.702a3.803 3.803 0 0 0-.198.81h4.05Zm4.199-6.264 2.178-.36v2.844h3.348v1.818h-3.348v3.834c0 .756.12 1.296.36 1.62.24.324.648.486 1.224.486.396 0 .744-.042 1.044-.126.312-.084.558-.162.738-.234l.36 1.728a7.379 7.379 0 0 1-.99.324c-.408.12-.888.18-1.44.18-.672 0-1.236-.09-1.692-.27a2.522 2.522 0 0 1-1.062-.774 3.18 3.18 0 0 1-.558-1.242 7.843 7.843 0 0 1-.162-1.674v-8.154Zm7.344 0 2.178-.36v2.844h3.348v1.818h-3.348v3.834c0 .756.12 1.296.36 1.62.24.324.648.486 1.224.486.396 0 .744-.042 1.044-.126.312-.084.558-.162.738-.234l.36 1.728a7.379 7.379 0 0 1-.99.324c-.408.12-.888.18-1.44.18-.672 0-1.236-.09-1.692-.27a2.522 2.522 0 0 1-1.062-.774 3.18 3.18 0 0 1-.558-1.242 7.843 7.843 0 0 1-.162-1.674v-8.154Zm6.771 7.236c0-.828.12-1.554.36-2.178.252-.624.582-1.14.99-1.548a3.9 3.9 0 0 1 1.404-.936 4.242 4.242 0 0 1 1.62-.324c1.296 0 2.304.402 3.024 1.206.732.804 1.098 2.004 1.098 3.6 0 .12-.006.258-.018.414a4 4 0 0 1-.018.396h-6.21c.06.756.324 1.344.792 1.764.48.408 1.17.612 2.07.612a6.65 6.65 0 0 0 1.44-.144 5.94 5.94 0 0 0 1.044-.306l.288 1.782a4.02 4.02 0 0 1-.504.198c-.204.06-.444.114-.72.162a8.317 8.317 0 0 1-1.818.198c-.828 0-1.548-.12-2.16-.36-.612-.252-1.116-.594-1.512-1.026a4.303 4.303 0 0 1-.882-1.548 6.407 6.407 0 0 1-.288-1.962Zm6.318-.972c0-.3-.042-.582-.126-.846a1.882 1.882 0 0 0-.378-.702 1.52 1.52 0 0 0-.594-.468 1.758 1.758 0 0 0-.828-.18c-.336 0-.63.066-.882.198-.252.12-.468.282-.648.486-.168.204-.3.438-.396.702a3.803 3.803 0 0 0-.198.81h4.05Zm9.671-1.818c-.18-.06-.432-.12-.756-.18a4.927 4.927 0 0 0-1.872-.036c-.264.048-.45.09-.558.126V354h-2.178v-8.964c.42-.156.942-.3 1.566-.432a9.546 9.546 0 0 1 2.106-.216c.144 0 .312.012.504.036.192.012.384.036.576.072.192.024.378.06.558.108.18.036.324.072.432.108l-.378 1.836ZM174.99 361.032c.504 0 .948.048 1.332.144.384.084.672.162.864.234l-.414 1.8a3.898 3.898 0 0 0-1.584-.324c-.348 0-.642.054-.882.162-.24.096-.432.234-.576.414-.144.18-.246.402-.306.666-.06.252-.09.528-.09.828v.63h3.42v1.818h-3.42V375h-2.178v-10.08c0-1.212.318-2.16.954-2.844.636-.696 1.596-1.044 2.88-1.044Zm10.915 13.68c-.42.108-.966.216-1.638.324-.672.12-1.41.18-2.214.18-.756 0-1.392-.108-1.908-.324a3.133 3.133 0 0 1-1.224-.9c-.3-.384-.516-.84-.648-1.368a7.42 7.42 0 0 1-.198-1.764v-5.274h2.178v4.932c0 1.008.144 1.728.432 2.16.3.432.816.648 1.548.648.264 0 .54-.012.828-.036.3-.024.522-.054.666-.09v-7.614h2.178v9.126Zm2.484-11.61 2.178-.36v2.844h3.348v1.818h-3.348v3.834c0 .756.12 1.296.36 1.62.24.324.648.486 1.224.486.396 0 .744-.042 1.044-.126.312-.084.558-.162.738-.234l.36 1.728a7.379 7.379 0 0 1-.99.324c-.408.12-.888.18-1.44.18-.672 0-1.236-.09-1.692-.27a2.522 2.522 0 0 1-1.062-.774 3.18 3.18 0 0 1-.558-1.242 7.843 7.843 0 0 1-.162-1.674v-8.154Zm15.174 11.61c-.42.108-.966.216-1.638.324-.672.12-1.41.18-2.214.18-.756 0-1.392-.108-1.908-.324a3.133 3.133 0 0 1-1.224-.9c-.3-.384-.516-.84-.648-1.368a7.42 7.42 0 0 1-.198-1.764v-5.274h2.178v4.932c0 1.008.144 1.728.432 2.16.3.432.816.648 1.548.648.264 0 .54-.012.828-.036.3-.024.522-.054.666-.09v-7.614h2.178v9.126Zm7.956-7.164c-.18-.06-.432-.12-.756-.18a4.927 4.927 0 0 0-1.872-.036c-.264.048-.45.09-.558.126V375h-2.178v-8.964c.42-.156.942-.3 1.566-.432a9.546 9.546 0 0 1 2.106-.216c.144 0 .312.012.504.036.192.012.384.036.576.072.192.024.378.06.558.108.18.036.324.072.432.108l-.378 1.836Zm1.194 2.79c0-.828.12-1.554.36-2.178.252-.624.582-1.14.99-1.548a3.9 3.9 0 0 1 1.404-.936 4.242 4.242 0 0 1 1.62-.324c1.296 0 2.304.402 3.024 1.206.732.804 1.098 2.004 1.098 3.6 0 .12-.006.258-.018.414a4 4 0 0 1-.018.396h-6.21c.06.756.324 1.344.792 1.764.48.408 1.17.612 2.07.612a6.65 6.65 0 0 0 1.44-.144 5.94 5.94 0 0 0 1.044-.306l.288 1.782a4.02 4.02 0 0 1-.504.198c-.204.06-.444.114-.72.162a8.317 8.317 0 0 1-1.818.198c-.828 0-1.548-.12-2.16-.36-.612-.252-1.116-.594-1.512-1.026a4.303 4.303 0 0 1-.882-1.548 6.407 6.407 0 0 1-.288-1.962Zm6.318-.972c0-.3-.042-.582-.126-.846a1.882 1.882 0 0 0-.378-.702 1.52 1.52 0 0 0-.594-.468 1.758 1.758 0 0 0-.828-.18c-.336 0-.63.066-.882.198-.252.12-.468.282-.648.486-.168.204-.3.438-.396.702a3.803 3.803 0 0 0-.198.81h4.05Zm6.755 4.446c0 .42-.144.762-.432 1.026a1.404 1.404 0 0 1-1.008.396c-.408 0-.75-.132-1.026-.396s-.414-.606-.414-1.026c0-.42.138-.762.414-1.026a1.393 1.393 0 0 1 1.026-.414c.396 0 .732.138 1.008.414.288.264.432.606.432 1.026Z"/>
  <defs>
    <radialGradient id="c" cx="0" cy="0" r="1" gradientTransform="rotate(125.196 186.924 104.428) scale(651.175 1396.58)" gradientUnits="userSpaceOnUse">
      <stop stop-color="#151515" stop-opacity=".5"/>
      <stop offset=".969" stop-color="#151515" stop-opacity="0"/>
    </radialGradient>
    <radialGradient id="d" cx="0" cy="0" r="1" gradientTransform="matrix(369.27585 530.31045 -1124.21236 782.83292 7.031 14.604)" gradientUnits="userSpaceOnUse">
      <stop stop-color="#fff" stop-opacity=".7"/>
      <stop offset="1" stop-color="#FDFDFD" stop-opacity="0"/>
    </radialGradient>
    <radialGradient id="e" cx="0" cy="0" r="1" gradientTransform="matrix(367.6022 522.0934 -1117.99013 787.16879 8.708 16.43)" gradientUnits="userSpaceOnUse">
      <stop stop-color="#B2A4FF" stop-opacity="0"/>
      <stop offset="1" stop-color="#FEDFB6"/>
    </radialGradient>
    <filter id="a" width="422" height="595.301" x="-20" y="-16.523" color-interpolation-filters="sRGB" filterUnits="userSpaceOnUse">
      <feFlood flood-opacity="0" result="BackgroundImageFix"/>
      <feGaussianBlur in="BackgroundImage" stdDeviation="10"/>
      <feComposite in2="SourceAlpha" operator="in" result="effect1_backgroundBlur_218_27"/>
      <feBlend in="SourceGraphic" in2="effect1_backgroundBlur_218_27" result="shape"/>
    </filter>
    <filter id="g" width="170.335" height="215.605" x="102" y="22.317" color-interpolation-filters="sRGB" filterUnits="userSpaceOnUse">
      <feFlood flood-opacity="0" result="BackgroundImageFix"/>
      <feGaussianBlur in="BackgroundImage" stdDeviation="7.5"/>
      <feComposite in2="SourceAlpha" operator="in" result="effect1_backgroundBlur_218_27"/>
      <feColorMatrix in="SourceAlpha" result="hardAlpha" values="0 0 0 0 0 0 0 0 0 0 0 0 0 0 0 0 0 0 127 0"/>
      <feOffset dx="2" dy="-2"/>
      <feGaussianBlur stdDeviation="6"/>
      <feComposite in2="hardAlpha" operator="out"/>
      <feColorMatrix values="0 0 0 0 0 0 0 0 0 0 0 0 0 0 0 0 0 0 0.1 0"/>
      <feBlend in2="effect1_backgroundBlur_218_27" mode="color-burn" result="effect2_dropShadow_218_27"/>
      <feBlend in="SourceGraphic" in2="effect2_dropShadow_218_27" result="shape"/>
      <feColorMatrix in="SourceAlpha" result="hardAlpha" values="0 0 0 0 0 0 0 0 0 0 0 0 0 0 0 0 0 0 127 0"/>
      <feOffset dy="-2"/>
      <feGaussianBlur stdDeviation="5"/>
      <feComposite in2="hardAlpha" k2="-1" k3="1" operator="arithmetic"/>
      <feColorMatrix values="0 0 0 0 1 0 0 0 0 0.204167 0 0 0 0 0.204167 0 0 0 0.15 0"/>
      <feBlend in2="shape" result="effect3_innerShadow_218_27"/>
      <feColorMatrix in="SourceAlpha" result="hardAlpha" values="0 0 0 0 0 0 0 0 0 0 0 0 0 0 0 0 0 0 127 0"/>
      <feOffset dx="-2" dy="2"/>
      <feGaussianBlur stdDeviation="5"/>
      <feComposite in2="hardAlpha" k2="-1" k3="1" operator="arithmetic"/>
      <feColorMatrix values="0 0 0 0 1 0 0 0 0 0.958333 0 0 0 0 0.958333 0 0 0 0.5 0"/>
      <feBlend in2="effect3_innerShadow_218_27" result="effect4_innerShadow_218_27"/>
    </filter>
    <linearGradient id="b" x1="8.373" x2="486.586" y1="21.906" y2="114.011" gradientUnits="userSpaceOnUse">
      <stop stop-color="#fff"/>
      <stop offset="1" stop-color="#fff" stop-opacity="0"/>
    </linearGradient>
    <pattern id="f" width=".582" height=".392" patternContentUnits="objectBoundingBox">
      <use xlink:href="#h" transform="scale(.00265 .00178)"/>
    </pattern>
  </defs>
</svg>
