<svg xmlns="http://www.w3.org/2000/svg" xmlns:xlink="http://www.w3.org/1999/xlink" width="384" height="563" fill="none" viewBox="0 0 384 563">
  <g filter="url(#a)">
    <rect width="379.117" height="552.93" x="2" y="5.493" fill="url(#b)" rx="80"/>
    <rect width="381.117" height="554.93" x="1" y="4.493" stroke="url(#c)" stroke-width="2" rx="81"/>
    <rect width="381.117" height="554.93" x="1" y="4.493" stroke="url(#d)" stroke-width="2" rx="81"/>
    <rect width="381.117" height="554.93" x="1" y="4.493" stroke="url(#e)" stroke-opacity=".5" stroke-width="2" rx="81"/>
  </g>
  <rect width="379.117" height="563" x="2" fill="url(#f)" fill-opacity=".1" rx="80" style="mix-blend-mode:overlay"/>
  <ellipse cx="242.945" cy="121.129" fill="url(#g)" rx="21.548" ry="18.775"/>
  <path fill="url(#h)" fill-rule="evenodd" d="M197.891 188.777H288v.047-.047c0-20.08-20.172-36.358-45.054-36.358-24.883 0-45.055 16.278-45.055 36.358Z" clip-rule="evenodd"/>
  <g filter="url(#i)">
    <ellipse cx="176.125" cy="93.07" fill="#9E8ED9" fill-opacity=".2" rx="32.103" ry="31.07"/>
    <path fill="#9E8ED9" fill-opacity=".2" fill-rule="evenodd" d="M243.25 205.02c0-33.23-30.053-60.167-67.125-60.167S109 171.79 109 205.02h134.25Z" clip-rule="evenodd"/>
  </g>
  <path fill="#000" d="M173.16 275.478c-1.872 0-3.552-.288-5.04-.865-1.488-.576-2.748-1.416-3.78-2.52-1.032-1.128-1.824-2.496-2.376-4.104-.552-1.608-.828-3.456-.828-5.544 0-2.088.312-3.936.936-5.544.648-1.608 1.524-2.964 2.628-4.068a10.862 10.862 0 0 1 3.888-2.556c1.488-.576 3.084-.864 4.788-.864 1.032 0 1.968.084 2.808.252.84.144 1.572.312 2.196.504.624.192 1.14.396 1.548.612.408.216.696.372.864.468l-1.332 3.708c-.576-.36-1.404-.696-2.484-1.008-1.056-.336-2.208-.504-3.456-.504a7.89 7.89 0 0 0-3.024.576 6.519 6.519 0 0 0-2.448 1.656c-.672.744-1.2 1.68-1.584 2.808-.384 1.128-.576 2.436-.576 3.924 0 1.32.144 2.532.432 3.636.312 1.104.78 2.064 1.404 2.88a6.55 6.55 0 0 0 2.376 1.872c.96.432 2.112.648 3.456.648 1.608 0 2.916-.156 3.924-.468 1.008-.336 1.788-.648 2.34-.936l1.224 3.709c-.288.191-.684.383-1.188.575-.48.192-1.056.384-1.728.576-.672.169-1.428.301-2.268.397-.84.12-1.74.18-2.7.18Zm11.293-.54v-27.217l4.356-.72v9.324c.48-.168 1.032-.312 1.656-.432.648-.12 1.284-.18 1.908-.18 1.512 0 2.76.216 3.744.648 1.008.408 1.812.996 2.412 1.764.6.744 1.02 1.644 1.26 2.7.264 1.056.396 2.232.396 3.529v10.584h-4.356v-9.901c0-1.008-.072-1.86-.216-2.556-.12-.72-.336-1.296-.648-1.728a2.366 2.366 0 0 0-1.188-.972c-.504-.216-1.128-.324-1.872-.324-.576 0-1.164.06-1.764.18-.6.12-1.044.228-1.332.324v14.977h-4.356Zm24.985 0h-4.356v-18.829h4.356v18.829Zm.468-24.337c0 .816-.264 1.464-.792 1.944a2.69 2.69 0 0 1-1.872.72c-.744 0-1.38-.24-1.908-.72s-.792-1.128-.792-1.944c0-.84.264-1.5.792-1.98s1.164-.72 1.908-.72c.72 0 1.344.24 1.872.72s.792 1.14.792 1.98Zm11.281 24.697c-1.296-.024-2.376-.168-3.24-.433-.84-.264-1.512-.636-2.016-1.115a4.303 4.303 0 0 1-1.08-1.837c-.192-.744-.288-1.584-.288-2.52v-21.672l4.356-.72v21.564c0 .528.036.972.108 1.332.096.36.252.672.468.936.216.24.504.432.864.576.384.12.864.216 1.44.288l-.612 3.601Zm7.196-9.829c0 1.92.456 3.432 1.368 4.536.912 1.08 2.172 1.62 3.78 1.62.696 0 1.284-.024 1.764-.072.504-.072.912-.144 1.224-.216v-10.8c-.384-.264-.9-.504-1.548-.72a5.568 5.568 0 0 0-2.016-.36c-1.584 0-2.748.54-3.492 1.62-.72 1.08-1.08 2.544-1.08 4.392Zm12.492 8.892c-.864.264-1.956.504-3.276.721a24.953 24.953 0 0 1-4.104.324c-1.488 0-2.82-.228-3.996-.685-1.176-.456-2.184-1.104-3.024-1.944-.816-.864-1.452-1.896-1.908-3.096-.432-1.224-.648-2.592-.648-4.104 0-1.488.18-2.832.54-4.032.384-1.224.936-2.268 1.656-3.132a7.11 7.11 0 0 1 2.628-1.979c1.032-.481 2.22-.721 3.564-.721.912 0 1.716.108 2.412.324.696.216 1.296.456 1.8.721v-9.037l4.356-.72v27.36ZM112.158 334c-.312-.48-.672-.984-1.08-1.512a22.387 22.387 0 0 0-1.296-1.53c-.444-.492-.906-.96-1.386-1.404-.48-.444-.954-.828-1.422-1.152V334h-2.268v-12.474h2.268v5.148c.396-.396.81-.816 1.242-1.26a133.226 133.226 0 0 0 2.502-2.718c.384-.432.732-.822 1.044-1.17h2.718c-.396.456-.816.93-1.26 1.422-.444.492-.9.99-1.368 1.494-.468.492-.942.984-1.422 1.476-.468.492-.93.96-1.386 1.404.504.384 1.014.834 1.53 1.35.528.504 1.044 1.05 1.548 1.638.504.576.984 1.182 1.44 1.818.468.624.894 1.248 1.278 1.872h-2.682Zm3.041-4.662c0-.828.12-1.554.36-2.178.252-.624.582-1.14.99-1.548a3.9 3.9 0 0 1 1.404-.936 4.242 4.242 0 0 1 1.62-.324c1.296 0 2.304.402 3.024 1.206.732.804 1.098 2.004 1.098 3.6 0 .12-.006.258-.018.414a4 4 0 0 1-.018.396h-6.21c.06.756.324 1.344.792 1.764.48.408 1.17.612 2.07.612a6.65 6.65 0 0 0 1.44-.144 5.94 5.94 0 0 0 1.044-.306l.288 1.782a4.02 4.02 0 0 1-.504.198c-.204.06-.444.114-.72.162a8.317 8.317 0 0 1-1.818.198c-.828 0-1.548-.12-2.16-.36-.612-.252-1.116-.594-1.512-1.026a4.303 4.303 0 0 1-.882-1.548 6.407 6.407 0 0 1-.288-1.962Zm6.318-.972c0-.3-.042-.582-.126-.846a1.882 1.882 0 0 0-.378-.702 1.52 1.52 0 0 0-.594-.468 1.758 1.758 0 0 0-.828-.18c-.336 0-.63.066-.882.198-.252.12-.468.282-.648.486-.168.204-.3.438-.396.702a3.803 3.803 0 0 0-.198.81h4.05Zm3.785.972c0-.828.12-1.554.36-2.178.252-.624.582-1.14.99-1.548a3.9 3.9 0 0 1 1.404-.936 4.242 4.242 0 0 1 1.62-.324c1.296 0 2.304.402 3.024 1.206.732.804 1.098 2.004 1.098 3.6 0 .12-.006.258-.018.414a4 4 0 0 1-.018.396h-6.21c.06.756.324 1.344.792 1.764.48.408 1.17.612 2.07.612a6.65 6.65 0 0 0 1.44-.144 5.94 5.94 0 0 0 1.044-.306l.288 1.782a4.02 4.02 0 0 1-.504.198c-.204.06-.444.114-.72.162a8.317 8.317 0 0 1-1.818.198c-.828 0-1.548-.12-2.16-.36-.612-.252-1.116-.594-1.512-1.026a4.303 4.303 0 0 1-.882-1.548 6.407 6.407 0 0 1-.288-1.962Zm6.318-.972c0-.3-.042-.582-.126-.846a1.882 1.882 0 0 0-.378-.702 1.52 1.52 0 0 0-.594-.468 1.758 1.758 0 0 0-.828-.18c-.336 0-.63.066-.882.198-.252.12-.468.282-.648.486-.168.204-.3.438-.396.702a3.803 3.803 0 0 0-.198.81h4.05Zm10.553.972c0-.972-.222-1.728-.666-2.268-.432-.54-1.134-.81-2.106-.81-.204 0-.42.012-.648.036a3.047 3.047 0 0 0-.648.108v5.382c.192.132.444.258.756.378.324.108.666.162 1.026.162.792 0 1.368-.27 1.728-.81.372-.54.558-1.266.558-2.178Zm2.232-.036c0 .72-.096 1.38-.288 1.98-.18.6-.444 1.116-.792 1.548a3.54 3.54 0 0 1-1.314 1.008c-.516.24-1.104.36-1.764.36-.444 0-.852-.054-1.224-.162a4.574 4.574 0 0 1-.918-.36v3.654h-2.178v-12.438c.444-.12.99-.234 1.638-.342a12.476 12.476 0 0 1 2.052-.162c.744 0 1.41.114 1.998.342a4.023 4.023 0 0 1 1.494.99c.42.42.738.936.954 1.548.228.6.342 1.278.342 2.034Zm5.978-7.2 2.178-.36v2.844h3.348v1.818h-3.348v3.834c0 .756.12 1.296.36 1.62.24.324.648.486 1.224.486.396 0 .744-.042 1.044-.126.312-.084.558-.162.738-.234l.36 1.728a7.379 7.379 0 0 1-.99.324c-.408.12-.888.18-1.44.18-.672 0-1.236-.09-1.692-.27a2.522 2.522 0 0 1-1.062-.774 3.18 3.18 0 0 1-.558-1.242 7.843 7.843 0 0 1-.162-1.674v-8.154Zm12.816 4.446c-.18-.06-.432-.12-.756-.18a4.927 4.927 0 0 0-1.872-.036c-.264.048-.45.09-.558.126V334h-2.178v-8.964c.42-.156.942-.3 1.566-.432a9.546 9.546 0 0 1 2.106-.216c.144 0 .312.012.504.036.192.012.384.036.576.072.192.024.378.06.558.108.18.036.324.072.432.108l-.378 1.836Zm5.027 5.922c.672 0 1.182-.036 1.53-.108v-2.412a4.866 4.866 0 0 0-1.278-.162c-.24 0-.486.018-.738.054-.24.036-.462.102-.666.198a1.197 1.197 0 0 0-.468.414c-.12.168-.18.384-.18.648 0 .516.162.876.486 1.08.324.192.762.288 1.314.288Zm-.18-8.118c.72 0 1.326.09 1.818.27.492.18.882.432 1.17.756.3.324.51.72.63 1.188.132.456.198.96.198 1.512v5.706c-.336.072-.846.156-1.53.252a14.51 14.51 0 0 1-2.286.162c-.564 0-1.08-.054-1.548-.162a3.344 3.344 0 0 1-1.206-.522 2.577 2.577 0 0 1-.774-.936c-.18-.384-.27-.858-.27-1.422 0-.54.102-.996.306-1.368.216-.372.504-.672.864-.9.36-.24.774-.408 1.242-.504.48-.108.978-.162 1.494-.162.24 0 .492.018.756.054.264.024.546.072.846.144v-.36c0-.252-.03-.492-.09-.72a1.371 1.371 0 0 0-.324-.594 1.36 1.36 0 0 0-.594-.414c-.24-.096-.546-.144-.918-.144-.504 0-.966.036-1.386.108-.42.072-.762.156-1.026.252l-.27-1.764c.276-.096.678-.192 1.206-.288a9.457 9.457 0 0 1 1.692-.144Zm5.782 4.95c0-.696.108-1.344.324-1.944.216-.612.522-1.14.918-1.584a4.34 4.34 0 0 1 1.476-1.044c.576-.252 1.224-.378 1.944-.378a6.59 6.59 0 0 1 2.52.486l-.468 1.782a4.89 4.89 0 0 0-.864-.27 4.477 4.477 0 0 0-1.008-.108c-.852 0-1.5.27-1.944.81-.444.528-.666 1.278-.666 2.25 0 .936.21 1.68.63 2.232.42.54 1.128.81 2.124.81.372 0 .738-.036 1.098-.108a5.16 5.16 0 0 0 .936-.27l.306 1.8c-.24.12-.606.228-1.098.324-.48.096-.978.144-1.494.144-.804 0-1.506-.12-2.106-.36a4.23 4.23 0 0 1-1.476-1.026 4.424 4.424 0 0 1-.864-1.566 6.581 6.581 0 0 1-.288-1.98Zm11.01-1.044.882-.918.918-.99c.3-.336.582-.654.846-.954.276-.312.51-.582.702-.81h2.574c-.6.672-1.236 1.368-1.908 2.088a83.9 83.9 0 0 1-1.998 2.106c.36.3.738.666 1.134 1.098.396.42.78.87 1.152 1.35.372.48.72.96 1.044 1.44.324.48.594.924.81 1.332h-2.52a15.786 15.786 0 0 0-.756-1.17 14.046 14.046 0 0 0-.9-1.188 17.337 17.337 0 0 0-.99-1.08 8.062 8.062 0 0 0-.99-.882V334h-2.178v-13.608l2.178-.36v8.226Zm20.091 1.026c0 .744-.108 1.422-.324 2.034a4.502 4.502 0 0 1-.918 1.566 4.108 4.108 0 0 1-1.44 1.008c-.552.24-1.164.36-1.836.36-.672 0-1.284-.12-1.836-.36a4.149 4.149 0 0 1-1.422-1.008 4.73 4.73 0 0 1-.936-1.566 6.078 6.078 0 0 1-.324-2.034c0-.744.108-1.416.324-2.016a4.73 4.73 0 0 1 .936-1.566 4.124 4.124 0 0 1 1.44-.99 4.51 4.51 0 0 1 1.818-.36c.66 0 1.266.12 1.818.36a3.915 3.915 0 0 1 1.44.99c.396.432.702.954.918 1.566.228.6.342 1.272.342 2.016Zm-2.232 0c0-.936-.204-1.674-.612-2.214-.396-.552-.954-.828-1.674-.828s-1.284.276-1.692.828c-.396.54-.594 1.278-.594 2.214 0 .948.198 1.698.594 2.25.408.552.972.828 1.692.828s1.278-.276 1.674-.828c.408-.552.612-1.302.612-2.25Zm8.13-9.252c.504 0 .948.048 1.332.144.384.084.672.162.864.234l-.414 1.8a3.898 3.898 0 0 0-1.584-.324c-.348 0-.642.054-.882.162-.24.096-.432.234-.576.414-.144.18-.246.402-.306.666-.06.252-.09.528-.09.828v.63h3.42v1.818h-3.42V334h-2.178v-10.08c0-1.212.318-2.16.954-2.844.636-.696 1.596-1.044 2.88-1.044Zm7.106 2.07 2.178-.36v2.844h3.348v1.818h-3.348v3.834c0 .756.12 1.296.36 1.62.24.324.648.486 1.224.486.396 0 .744-.042 1.044-.126.312-.084.558-.162.738-.234l.36 1.728a7.379 7.379 0 0 1-.99.324c-.408.12-.888.18-1.44.18-.672 0-1.236-.09-1.692-.27a2.522 2.522 0 0 1-1.062-.774 3.18 3.18 0 0 1-.558-1.242 7.843 7.843 0 0 1-.162-1.674v-8.154ZM225.385 334v-13.608l2.178-.36v4.662c.24-.084.516-.156.828-.216.324-.06.642-.09.954-.09.756 0 1.38.108 1.872.324.504.204.906.498 1.206.882.3.372.51.822.63 1.35.132.528.198 1.116.198 1.764V334h-2.178v-4.95c0-.504-.036-.93-.108-1.278-.06-.36-.168-.648-.324-.864a1.183 1.183 0 0 0-.594-.486c-.252-.108-.564-.162-.936-.162-.288 0-.582.03-.882.09-.3.06-.522.114-.666.162V334h-2.178Zm9.774-4.662c0-.828.12-1.554.36-2.178.252-.624.582-1.14.99-1.548a3.9 3.9 0 0 1 1.404-.936 4.242 4.242 0 0 1 1.62-.324c1.296 0 2.304.402 3.024 1.206.732.804 1.098 2.004 1.098 3.6 0 .12-.006.258-.018.414a4 4 0 0 1-.018.396h-6.21c.06.756.324 1.344.792 1.764.48.408 1.17.612 2.07.612a6.65 6.65 0 0 0 1.44-.144 5.94 5.94 0 0 0 1.044-.306l.288 1.782a4.02 4.02 0 0 1-.504.198c-.204.06-.444.114-.72.162a8.317 8.317 0 0 1-1.818.198c-.828 0-1.548-.12-2.16-.36-.612-.252-1.116-.594-1.512-1.026a4.303 4.303 0 0 1-.882-1.548 6.407 6.407 0 0 1-.288-1.962Zm6.318-.972c0-.3-.042-.582-.126-.846a1.882 1.882 0 0 0-.378-.702 1.52 1.52 0 0 0-.594-.468 1.758 1.758 0 0 0-.828-.18c-.336 0-.63.066-.882.198-.252.12-.468.282-.648.486-.168.204-.3.438-.396.702a3.803 3.803 0 0 0-.198.81h4.05Zm8.437 5.634v-12.474h8.01v1.926h-5.742v3.078h5.112v1.89h-5.112v3.654h6.174V334h-8.442Zm19.06-12.474v1.962h-3.834V334h-2.286v-10.512h-3.834v-1.962h9.954Zm9.236 0h2.268V334h-2.268v-5.526h-5.418V334h-2.268v-12.474h2.268v4.986h5.418v-4.986ZM72.685 355h-2.178v-9.414h2.178V355Zm.234-12.168c0 .408-.132.732-.396.972s-.576.36-.936.36c-.372 0-.69-.12-.954-.36s-.396-.564-.396-.972c0-.42.132-.75.396-.99s.582-.36.954-.36c.36 0 .672.12.936.36s.396.57.396.99Zm2.365 3.06c.42-.12.966-.234 1.638-.342a14.123 14.123 0 0 1 2.232-.162c.768 0 1.41.108 1.926.324.516.204.924.498 1.224.882.312.372.528.828.648 1.368.132.528.198 1.11.198 1.746V355h-2.178v-4.95c0-.504-.036-.93-.108-1.278-.06-.36-.168-.648-.324-.864a1.177 1.177 0 0 0-.612-.486c-.252-.108-.564-.162-.936-.162-.276 0-.564.018-.864.054-.3.036-.522.066-.666.09V355h-2.178v-9.108ZM87.799 355a64.33 64.33 0 0 1-1.854-4.248 56.667 56.667 0 0 1-1.71-5.166h2.322c.132.528.282 1.098.45 1.71.18.6.366 1.206.558 1.818.204.6.408 1.188.612 1.764.216.564.414 1.074.594 1.53.18-.456.372-.966.576-1.53a60.68 60.68 0 0 0 .594-1.764c.204-.612.396-1.218.576-1.818.18-.612.336-1.182.468-1.71h2.25a53.145 53.145 0 0 1-1.728 5.166A58.942 58.942 0 0 1 89.671 355H87.8Zm6.15-4.662c0-.828.12-1.554.36-2.178.252-.624.582-1.14.99-1.548a3.9 3.9 0 0 1 1.404-.936 4.242 4.242 0 0 1 1.62-.324c1.296 0 2.304.402 3.024 1.206.732.804 1.098 2.004 1.098 3.6 0 .12-.006.258-.018.414a4 4 0 0 1-.018.396h-6.21c.06.756.324 1.344.792 1.764.48.408 1.17.612 2.07.612a6.65 6.65 0 0 0 1.44-.144 5.94 5.94 0 0 0 1.044-.306l.288 1.782a4.02 4.02 0 0 1-.504.198c-.204.06-.444.114-.72.162a8.317 8.317 0 0 1-1.818.198c-.828 0-1.548-.12-2.16-.36-.612-.252-1.116-.594-1.512-1.026a4.303 4.303 0 0 1-.882-1.548 6.407 6.407 0 0 1-.288-1.962Zm6.318-.972c0-.3-.042-.582-.126-.846a1.882 1.882 0 0 0-.378-.702 1.52 1.52 0 0 0-.594-.468 1.758 1.758 0 0 0-.828-.18c-.336 0-.63.066-.882.198-.252.12-.468.282-.648.486-.168.204-.3.438-.396.702a3.803 3.803 0 0 0-.198.81h4.05Zm6.665 4.068c.576 0 .996-.066 1.26-.198.264-.144.396-.384.396-.72 0-.312-.144-.57-.432-.774-.276-.204-.738-.426-1.386-.666a13.855 13.855 0 0 1-1.098-.45 4.028 4.028 0 0 1-.846-.576 2.464 2.464 0 0 1-.576-.774c-.132-.312-.198-.69-.198-1.134 0-.864.318-1.542.954-2.034.636-.504 1.5-.756 2.592-.756.552 0 1.08.054 1.584.162.504.096.882.192 1.134.288l-.396 1.764a4.913 4.913 0 0 0-.918-.288 5.216 5.216 0 0 0-1.296-.144c-.444 0-.804.078-1.08.234a.72.72 0 0 0-.414.684c0 .156.024.294.072.414.06.12.156.234.288.342.132.096.306.198.522.306.216.096.48.198.792.306.516.192.954.384 1.314.576.36.18.654.39.882.63.24.228.414.492.522.792.108.3.162.66.162 1.08 0 .9-.336 1.584-1.008 2.052-.66.456-1.608.684-2.844.684-.828 0-1.494-.072-1.998-.216-.504-.132-.858-.24-1.062-.324l.378-1.818a10 10 0 0 0 1.152.378c.456.12.972.18 1.548.18Zm5.581-10.332 2.178-.36v2.844h3.348v1.818h-3.348v3.834c0 .756.12 1.296.36 1.62.24.324.648.486 1.224.486.396 0 .744-.042 1.044-.126.312-.084.558-.162.738-.234l.36 1.728a7.379 7.379 0 0 1-.99.324c-.408.12-.888.18-1.44.18-.672 0-1.236-.09-1.692-.27a2.522 2.522 0 0 1-1.062-.774 3.18 3.18 0 0 1-.558-1.242 7.843 7.843 0 0 1-.162-1.674v-8.154Zm12.815 6.948c0-.984-.126-1.692-.378-2.124-.24-.444-.696-.666-1.368-.666-.24 0-.504.018-.792.054-.288.036-.504.066-.648.09V355h-2.178v-9.108c.42-.12.966-.234 1.638-.342a13.845 13.845 0 0 1 2.16-.162c.648 0 1.176.084 1.584.252.42.168.768.39 1.044.666a4.508 4.508 0 0 1 1.188-.594c.252-.096.516-.174.792-.234.288-.06.576-.09.864-.09.732 0 1.332.108 1.8.324.48.204.852.498 1.116.882.276.372.462.828.558 1.368.108.528.162 1.11.162 1.746V355h-2.178v-4.95c0-.984-.12-1.692-.36-2.124-.24-.444-.702-.666-1.386-.666-.348 0-.678.06-.99.18-.312.108-.546.216-.702.324.096.3.162.618.198.954.036.336.054.696.054 1.08V355h-2.178v-4.95Zm9.508.288c0-.828.12-1.554.36-2.178.252-.624.582-1.14.99-1.548a3.9 3.9 0 0 1 1.404-.936 4.242 4.242 0 0 1 1.62-.324c1.296 0 2.304.402 3.024 1.206.732.804 1.098 2.004 1.098 3.6 0 .12-.006.258-.018.414a4 4 0 0 1-.018.396h-6.21c.06.756.324 1.344.792 1.764.48.408 1.17.612 2.07.612a6.65 6.65 0 0 0 1.44-.144 5.94 5.94 0 0 0 1.044-.306l.288 1.782a4.02 4.02 0 0 1-.504.198c-.204.06-.444.114-.72.162a8.317 8.317 0 0 1-1.818.198c-.828 0-1.548-.12-2.16-.36-.612-.252-1.116-.594-1.512-1.026a4.303 4.303 0 0 1-.882-1.548 6.407 6.407 0 0 1-.288-1.962Zm6.318-.972c0-.3-.042-.582-.126-.846a1.882 1.882 0 0 0-.378-.702 1.52 1.52 0 0 0-.594-.468 1.758 1.758 0 0 0-.828-.18c-.336 0-.63.066-.882.198-.252.12-.468.282-.648.486-.168.204-.3.438-.396.702a3.803 3.803 0 0 0-.198.81h4.05Zm4.307-3.474c.42-.12.966-.234 1.638-.342a14.123 14.123 0 0 1 2.232-.162c.768 0 1.41.108 1.926.324.516.204.924.498 1.224.882.312.372.528.828.648 1.368.132.528.198 1.11.198 1.746V355h-2.178v-4.95c0-.504-.036-.93-.108-1.278-.06-.36-.168-.648-.324-.864a1.177 1.177 0 0 0-.612-.486c-.252-.108-.564-.162-.936-.162-.276 0-.564.018-.864.054-.3.036-.522.066-.666.09V355h-2.178v-9.108Zm10.242-2.79 2.178-.36v2.844h3.348v1.818h-3.348v3.834c0 .756.12 1.296.36 1.62.24.324.648.486 1.224.486.396 0 .744-.042 1.044-.126.312-.084.558-.162.738-.234l.36 1.728a7.379 7.379 0 0 1-.99.324c-.408.12-.888.18-1.44.18-.672 0-1.236-.09-1.692-.27a2.522 2.522 0 0 1-1.062-.774 3.18 3.18 0 0 1-.558-1.242 7.843 7.843 0 0 1-.162-1.674v-8.154Zm14.748 12.078c-.648-.012-1.188-.084-1.62-.216-.42-.132-.756-.318-1.008-.558a2.147 2.147 0 0 1-.54-.918 5.052 5.052 0 0 1-.144-1.26v-10.836l2.178-.36v10.782c0 .264.018.486.054.666.048.18.126.336.234.468.108.12.252.216.432.288.192.06.432.108.72.144l-.306 1.8Zm1.366-4.842c0-.828.12-1.554.36-2.178.252-.624.582-1.14.99-1.548a3.9 3.9 0 0 1 1.404-.936 4.242 4.242 0 0 1 1.62-.324c1.296 0 2.304.402 3.024 1.206.732.804 1.098 2.004 1.098 3.6 0 .12-.006.258-.018.414a4 4 0 0 1-.018.396h-6.21c.06.756.324 1.344.792 1.764.48.408 1.17.612 2.07.612a6.65 6.65 0 0 0 1.44-.144 5.94 5.94 0 0 0 1.044-.306l.288 1.782a4.02 4.02 0 0 1-.504.198c-.204.06-.444.114-.72.162a8.317 8.317 0 0 1-1.818.198c-.828 0-1.548-.12-2.16-.36-.612-.252-1.116-.594-1.512-1.026a4.303 4.303 0 0 1-.882-1.548 6.407 6.407 0 0 1-.288-1.962Zm6.318-.972c0-.3-.042-.582-.126-.846a1.882 1.882 0 0 0-.378-.702 1.52 1.52 0 0 0-.594-.468 1.758 1.758 0 0 0-.828-.18c-.336 0-.63.066-.882.198-.252.12-.468.282-.648.486-.168.204-.3.438-.396.702a3.803 3.803 0 0 0-.198.81h4.05Zm8.141-8.334c.504 0 .948.048 1.332.144.384.084.672.162.864.234l-.414 1.8a3.898 3.898 0 0 0-1.584-.324c-.348 0-.642.054-.882.162-.24.096-.432.234-.576.414-.144.18-.246.402-.306.666-.06.252-.09.528-.09.828v.63h3.42v1.818h-3.42V355h-2.178v-10.08c0-1.212.318-2.16.954-2.844.636-.696 1.596-1.044 2.88-1.044Zm3.085 2.07 2.178-.36v2.844h3.348v1.818h-3.348v3.834c0 .756.12 1.296.36 1.62.24.324.648.486 1.224.486.396 0 .744-.042 1.044-.126.312-.084.558-.162.738-.234l.36 1.728a7.379 7.379 0 0 1-.99.324c-.408.12-.888.18-1.44.18-.672 0-1.236-.09-1.692-.27a2.522 2.522 0 0 1-1.062-.774 3.18 3.18 0 0 1-.558-1.242 7.843 7.843 0 0 1-.162-1.674v-8.154Zm11.365 0 2.178-.36v2.844h3.348v1.818h-3.348v3.834c0 .756.12 1.296.36 1.62.24.324.648.486 1.224.486.396 0 .744-.042 1.044-.126.312-.084.558-.162.738-.234l.36 1.728a7.379 7.379 0 0 1-.99.324c-.408.12-.888.18-1.44.18-.672 0-1.236-.09-1.692-.27a2.522 2.522 0 0 1-1.062-.774 3.18 3.18 0 0 1-.558-1.242 7.843 7.843 0 0 1-.162-1.674v-8.154Zm15.754 7.182c0 .744-.108 1.422-.324 2.034a4.502 4.502 0 0 1-.918 1.566 4.108 4.108 0 0 1-1.44 1.008c-.552.24-1.164.36-1.836.36-.672 0-1.284-.12-1.836-.36a4.149 4.149 0 0 1-1.422-1.008 4.73 4.73 0 0 1-.936-1.566 6.078 6.078 0 0 1-.324-2.034c0-.744.108-1.416.324-2.016a4.73 4.73 0 0 1 .936-1.566 4.124 4.124 0 0 1 1.44-.99 4.51 4.51 0 0 1 1.818-.36c.66 0 1.266.12 1.818.36a3.915 3.915 0 0 1 1.44.99c.396.432.702.954.918 1.566.228.6.342 1.272.342 2.016Zm-2.232 0c0-.936-.204-1.674-.612-2.214-.396-.552-.954-.828-1.674-.828s-1.284.276-1.692.828c-.396.54-.594 1.278-.594 2.214 0 .948.198 1.698.594 2.25.408.552.972.828 1.692.828s1.278-.276 1.674-.828c.408-.552.612-1.302.612-2.25Zm16.003-4.698c-.972 3.576-2.1 6.816-3.384 9.72a9.772 9.772 0 0 1-.738 1.386 4.111 4.111 0 0 1-.846.954 2.89 2.89 0 0 1-1.044.54c-.384.12-.828.18-1.332.18-.336 0-.672-.036-1.008-.108a3.354 3.354 0 0 1-.738-.234l.396-1.746c.432.168.858.252 1.278.252.564 0 1.002-.138 1.314-.414.324-.264.606-.678.846-1.242a52.385 52.385 0 0 1-1.98-4.32 49.163 49.163 0 0 1-1.674-4.968h2.322c.12.504.264 1.05.432 1.638.18.588.372 1.188.576 1.8.204.6.42 1.2.648 1.8.228.6.456 1.158.684 1.674a49.547 49.547 0 0 0 1.08-3.402c.336-1.212.642-2.382.918-3.51h2.25Zm9.982 4.698c0 .744-.108 1.422-.324 2.034a4.502 4.502 0 0 1-.918 1.566 4.108 4.108 0 0 1-1.44 1.008c-.552.24-1.164.36-1.836.36-.672 0-1.284-.12-1.836-.36a4.149 4.149 0 0 1-1.422-1.008 4.73 4.73 0 0 1-.936-1.566 6.078 6.078 0 0 1-.324-2.034c0-.744.108-1.416.324-2.016a4.73 4.73 0 0 1 .936-1.566 4.124 4.124 0 0 1 1.44-.99 4.51 4.51 0 0 1 1.818-.36c.66 0 1.266.12 1.818.36a3.915 3.915 0 0 1 1.44.99c.396.432.702.954.918 1.566.228.6.342 1.272.342 2.016Zm-2.232 0c0-.936-.204-1.674-.612-2.214-.396-.552-.954-.828-1.674-.828s-1.284.276-1.692.828c-.396.54-.594 1.278-.594 2.214 0 .948.198 1.698.594 2.25.408.552.972.828 1.692.828s1.278-.276 1.674-.828c.408-.552.612-1.302.612-2.25Zm12.018 4.428c-.42.108-.966.216-1.638.324-.672.12-1.41.18-2.214.18-.756 0-1.392-.108-1.908-.324a3.133 3.133 0 0 1-1.224-.9c-.3-.384-.516-.84-.648-1.368a7.42 7.42 0 0 1-.198-1.764v-5.274h2.178v4.932c0 1.008.144 1.728.432 2.16.3.432.816.648 1.548.648.264 0 .54-.012.828-.036.3-.024.522-.054.666-.09v-7.614h2.178v9.126Zm12.86-4.446c0-.924-.186-1.656-.558-2.196-.36-.54-.936-.81-1.728-.81-.36 0-.702.054-1.026.162a3.18 3.18 0 0 0-.756.36v5.418c.156.036.354.072.594.108.252.024.552.036.9.036.804 0 1.434-.27 1.89-.81.456-.552.684-1.308.684-2.268Zm2.232.036c0 .756-.114 1.44-.342 2.052a4.258 4.258 0 0 1-.954 1.548 4.023 4.023 0 0 1-1.494.99c-.588.228-1.254.342-1.998.342-.72 0-1.41-.054-2.07-.162a12.962 12.962 0 0 1-1.62-.36v-13.32l2.178-.36v4.878c.252-.132.558-.252.918-.36.372-.108.78-.162 1.224-.162.66 0 1.248.12 1.764.36.528.228.966.558 1.314.99.348.432.612.954.792 1.566.192.6.288 1.266.288 1.998Zm9.557-4.716c-.972 3.576-2.1 6.816-3.384 9.72a9.772 9.772 0 0 1-.738 1.386 4.111 4.111 0 0 1-.846.954 2.89 2.89 0 0 1-1.044.54c-.384.12-.828.18-1.332.18-.336 0-.672-.036-1.008-.108a3.354 3.354 0 0 1-.738-.234l.396-1.746c.432.168.858.252 1.278.252.564 0 1.002-.138 1.314-.414.324-.264.606-.678.846-1.242a52.385 52.385 0 0 1-1.98-4.32 49.163 49.163 0 0 1-1.674-4.968h2.322c.12.504.264 1.05.432 1.638.18.588.372 1.188.576 1.8.204.6.42 1.2.648 1.8.228.6.456 1.158.684 1.674a49.547 49.547 0 0 0 1.08-3.402c.336-1.212.642-2.382.918-3.51h2.25Zm13.175 0c-.972 3.576-2.1 6.816-3.384 9.72a9.772 9.772 0 0 1-.738 1.386 4.111 4.111 0 0 1-.846.954 2.89 2.89 0 0 1-1.044.54c-.384.12-.828.18-1.332.18-.336 0-.672-.036-1.008-.108a3.354 3.354 0 0 1-.738-.234l.396-1.746c.432.168.858.252 1.278.252.564 0 1.002-.138 1.314-.414.324-.264.606-.678.846-1.242a52.385 52.385 0 0 1-1.98-4.32 49.163 49.163 0 0 1-1.674-4.968h2.322c.12.504.264 1.05.432 1.638.18.588.372 1.188.576 1.8.204.6.42 1.2.648 1.8.228.6.456 1.158.684 1.674a49.547 49.547 0 0 0 1.08-3.402c.336-1.212.642-2.382.918-3.51h2.25Zm9.982 4.698c0 .744-.108 1.422-.324 2.034a4.502 4.502 0 0 1-.918 1.566 4.108 4.108 0 0 1-1.44 1.008c-.552.24-1.164.36-1.836.36-.672 0-1.284-.12-1.836-.36a4.149 4.149 0 0 1-1.422-1.008 4.73 4.73 0 0 1-.936-1.566 6.078 6.078 0 0 1-.324-2.034c0-.744.108-1.416.324-2.016a4.73 4.73 0 0 1 .936-1.566 4.124 4.124 0 0 1 1.44-.99 4.51 4.51 0 0 1 1.818-.36c.66 0 1.266.12 1.818.36a3.915 3.915 0 0 1 1.44.99c.396.432.702.954.918 1.566.228.6.342 1.272.342 2.016Zm-2.232 0c0-.936-.204-1.674-.612-2.214-.396-.552-.954-.828-1.674-.828s-1.284.276-1.692.828c-.396.54-.594 1.278-.594 2.214 0 .948.198 1.698.594 2.25.408.552.972.828 1.692.828s1.278-.276 1.674-.828c.408-.552.612-1.302.612-2.25Zm12.018 4.428c-.42.108-.966.216-1.638.324-.672.12-1.41.18-2.214.18-.756 0-1.392-.108-1.908-.324a3.133 3.133 0 0 1-1.224-.9c-.3-.384-.516-.84-.648-1.368a7.42 7.42 0 0 1-.198-1.764v-5.274h2.178v4.932c0 1.008.144 1.728.432 2.16.3.432.816.648 1.548.648.264 0 .54-.012.828-.036.3-.024.522-.054.666-.09v-7.614h2.178v9.126Zm7.956-7.164c-.18-.06-.432-.12-.756-.18a4.927 4.927 0 0 0-1.872-.036c-.264.048-.45.09-.558.126V355h-2.178v-8.964c.42-.156.942-.3 1.566-.432a9.546 9.546 0 0 1 2.106-.216c.144 0 .312.012.504.036.192.012.384.036.576.072.192.024.378.06.558.108.18.036.324.072.432.108l-.378 1.836Zm-149.276 23.79c0-.972-.222-1.728-.666-2.268-.432-.54-1.134-.81-2.106-.81-.204 0-.42.012-.648.036a3.047 3.047 0 0 0-.648.108v5.382c.192.132.444.258.756.378.324.108.666.162 1.026.162.792 0 1.368-.27 1.728-.81.372-.54.558-1.266.558-2.178Zm2.232-.036c0 .72-.096 1.38-.288 1.98-.18.6-.444 1.116-.792 1.548a3.54 3.54 0 0 1-1.314 1.008c-.516.24-1.104.36-1.764.36-.444 0-.852-.054-1.224-.162a4.574 4.574 0 0 1-.918-.36v3.654h-2.178v-12.438c.444-.12.99-.234 1.638-.342a12.476 12.476 0 0 1 2.052-.162c.744 0 1.41.114 1.998.342a4.023 4.023 0 0 1 1.494.99c.42.42.738.936.954 1.548.228.6.342 1.278.342 2.034Zm5.377 3.168c.672 0 1.182-.036 1.53-.108v-2.412a4.866 4.866 0 0 0-1.278-.162c-.24 0-.486.018-.738.054-.24.036-.462.102-.666.198a1.197 1.197 0 0 0-.468.414c-.12.168-.18.384-.18.648 0 .516.162.876.486 1.08.324.192.762.288 1.314.288Zm-.18-8.118c.72 0 1.326.09 1.818.27.492.18.882.432 1.17.756.3.324.51.72.63 1.188.132.456.198.96.198 1.512v5.706c-.336.072-.846.156-1.53.252a14.51 14.51 0 0 1-2.286.162c-.564 0-1.08-.054-1.548-.162a3.344 3.344 0 0 1-1.206-.522 2.577 2.577 0 0 1-.774-.936c-.18-.384-.27-.858-.27-1.422 0-.54.102-.996.306-1.368.216-.372.504-.672.864-.9.36-.24.774-.408 1.242-.504.48-.108.978-.162 1.494-.162.24 0 .492.018.756.054.264.024.546.072.846.144v-.36c0-.252-.03-.492-.09-.72a1.371 1.371 0 0 0-.324-.594 1.36 1.36 0 0 0-.594-.414c-.24-.096-.546-.144-.918-.144-.504 0-.966.036-1.386.108-.42.072-.762.156-1.026.252l-.27-1.764c.276-.096.678-.192 1.206-.288a9.457 9.457 0 0 1 1.692-.144Zm11.667 2.196c-.18-.06-.432-.12-.756-.18a4.927 4.927 0 0 0-1.872-.036c-.264.048-.45.09-.558.126V376h-2.178v-8.964c.42-.156.942-.3 1.566-.432a9.546 9.546 0 0 1 2.106-.216c.144 0 .312.012.504.036.192.012.384.036.576.072.192.024.378.06.558.108.18.036.324.072.432.108l-.378 1.836Zm1.194 2.79c0-.828.12-1.554.36-2.178.252-.624.582-1.14.99-1.548a3.9 3.9 0 0 1 1.404-.936 4.242 4.242 0 0 1 1.62-.324c1.296 0 2.304.402 3.024 1.206.732.804 1.098 2.004 1.098 3.6 0 .12-.006.258-.018.414a4 4 0 0 1-.018.396h-6.21c.06.756.324 1.344.792 1.764.48.408 1.17.612 2.07.612a6.65 6.65 0 0 0 1.44-.144 5.94 5.94 0 0 0 1.044-.306l.288 1.782a4.02 4.02 0 0 1-.504.198c-.204.06-.444.114-.72.162a8.317 8.317 0 0 1-1.818.198c-.828 0-1.548-.12-2.16-.36-.612-.252-1.116-.594-1.512-1.026a4.303 4.303 0 0 1-.882-1.548 6.407 6.407 0 0 1-.288-1.962Zm6.318-.972c0-.3-.042-.582-.126-.846a1.882 1.882 0 0 0-.378-.702 1.52 1.52 0 0 0-.594-.468 1.758 1.758 0 0 0-.828-.18c-.336 0-.63.066-.882.198-.252.12-.468.282-.648.486-.168.204-.3.438-.396.702a3.803 3.803 0 0 0-.198.81h4.05Zm4.307-3.474c.42-.12.966-.234 1.638-.342a14.123 14.123 0 0 1 2.232-.162c.768 0 1.41.108 1.926.324.516.204.924.498 1.224.882.312.372.528.828.648 1.368.132.528.198 1.11.198 1.746V376h-2.178v-4.95c0-.504-.036-.93-.108-1.278-.06-.36-.168-.648-.324-.864a1.177 1.177 0 0 0-.612-.486c-.252-.108-.564-.162-.936-.162-.276 0-.564.018-.864.054-.3.036-.522.066-.666.09V376h-2.178v-9.108Zm10.241-2.79 2.178-.36v2.844h3.348v1.818h-3.348v3.834c0 .756.12 1.296.36 1.62.24.324.648.486 1.224.486.396 0 .744-.042 1.044-.126.312-.084.558-.162.738-.234l.36 1.728a7.379 7.379 0 0 1-.99.324c-.408.12-.888.18-1.44.18-.672 0-1.236-.09-1.692-.27a2.522 2.522 0 0 1-1.062-.774 3.18 3.18 0 0 1-.558-1.242 7.843 7.843 0 0 1-.162-1.674v-8.154Zm9.81 10.332c.576 0 .996-.066 1.26-.198.264-.144.396-.384.396-.72 0-.312-.144-.57-.432-.774-.276-.204-.738-.426-1.386-.666a13.855 13.855 0 0 1-1.098-.45 4.028 4.028 0 0 1-.846-.576 2.464 2.464 0 0 1-.576-.774c-.132-.312-.198-.69-.198-1.134 0-.864.318-1.542.954-2.034.636-.504 1.5-.756 2.592-.756.552 0 1.08.054 1.584.162.504.096.882.192 1.134.288l-.396 1.764a4.913 4.913 0 0 0-.918-.288 5.216 5.216 0 0 0-1.296-.144c-.444 0-.804.078-1.08.234a.72.72 0 0 0-.414.684c0 .156.024.294.072.414.06.12.156.234.288.342.132.096.306.198.522.306.216.096.48.198.792.306.516.192.954.384 1.314.576.36.18.654.39.882.63.24.228.414.492.522.792.108.3.162.66.162 1.08 0 .9-.336 1.584-1.008 2.052-.66.456-1.608.684-2.844.684-.828 0-1.494-.072-1.998-.216-.504-.132-.858-.24-1.062-.324l.378-1.818a10 10 0 0 0 1.152.378c.456.12.972.18 1.548.18Zm8.136.378c0 .42-.144.762-.432 1.026a1.404 1.404 0 0 1-1.008.396c-.408 0-.75-.132-1.026-.396s-.414-.606-.414-1.026c0-.42.138-.762.414-1.026a1.393 1.393 0 0 1 1.026-.414c.396 0 .732.138 1.008.414.288.264.432.606.432 1.026Z"/>
  <defs>
    <radialGradient id="c" cx="0" cy="0" r="1" gradientTransform="matrix(-376.43011 533.7028 -1144.6394 -807.3346 381.117 11.9)" gradientUnits="userSpaceOnUse">
      <stop stop-color="#151515" stop-opacity=".5"/>
      <stop offset=".969" stop-color="#151515" stop-opacity="0"/>
    </radialGradient>
    <radialGradient id="d" cx="0" cy="0" r="1" gradientTransform="rotate(55.149 -10.501 14.07) scale(648.124 1373.97)" gradientUnits="userSpaceOnUse">
      <stop stop-color="#fff" stop-opacity=".7"/>
      <stop offset="1" stop-color="#FDFDFD" stop-opacity="0"/>
    </radialGradient>
    <radialGradient id="e" cx="0" cy="0" r="1" gradientTransform="matrix(368.68856 523.63632 -1121.29346 789.49464 8.728 16.478)" gradientUnits="userSpaceOnUse">
      <stop stop-color="#B2A4FF" stop-opacity="0"/>
      <stop offset="1" stop-color="#FEDFB6"/>
    </radialGradient>
    <linearGradient id="b" x1="8.392" x2="488.018" y1="21.971" y2="114.348" gradientUnits="userSpaceOnUse">
      <stop stop-color="#fff"/>
      <stop offset="1" stop-color="#fff" stop-opacity="0"/>
    </linearGradient>
    <linearGradient id="g" x1="290.227" x2="227.753" y1="79.404" y2="139.64" gradientUnits="userSpaceOnUse">
      <stop stop-color="#C8BDF3" stop-opacity="0"/>
      <stop offset="1" stop-color="#C8BDF3"/>
    </linearGradient>
    <linearGradient id="h" x1="341.806" x2="294.46" y1="130.169" y2="228.619" gradientUnits="userSpaceOnUse">
      <stop stop-color="#C8BDF3" stop-opacity="0"/>
      <stop offset="1" stop-color="#C8BDF3"/>
    </linearGradient>
    <filter id="a" width="423.117" height="596.93" x="-20" y="-16.507" color-interpolation-filters="sRGB" filterUnits="userSpaceOnUse">
      <feFlood flood-opacity="0" result="BackgroundImageFix"/>
      <feGaussianBlur in="BackgroundImage" stdDeviation="10"/>
      <feComposite in2="SourceAlpha" operator="in" result="effect1_backgroundBlur_218_10"/>
      <feBlend in="SourceGraphic" in2="effect1_backgroundBlur_218_10" result="shape"/>
    </filter>
    <filter id="i" width="164.25" height="173.02" x="94" y="47" color-interpolation-filters="sRGB" filterUnits="userSpaceOnUse">
      <feFlood flood-opacity="0" result="BackgroundImageFix"/>
      <feGaussianBlur in="BackgroundImage" stdDeviation="7.5"/>
      <feComposite in2="SourceAlpha" operator="in" result="effect1_backgroundBlur_218_10"/>
      <feColorMatrix in="SourceAlpha" result="hardAlpha" values="0 0 0 0 0 0 0 0 0 0 0 0 0 0 0 0 0 0 127 0"/>
      <feOffset dx="2" dy="-2"/>
      <feGaussianBlur stdDeviation="6"/>
      <feComposite in2="hardAlpha" operator="out"/>
      <feColorMatrix values="0 0 0 0 0.652683 0 0 0 0 0.580781 0 0 0 0 0.7875 0 0 0 0.5 0"/>
      <feBlend in2="effect1_backgroundBlur_218_10" result="effect2_dropShadow_218_10"/>
      <feBlend in="SourceGraphic" in2="effect2_dropShadow_218_10" result="shape"/>
      <feColorMatrix in="SourceAlpha" result="hardAlpha" values="0 0 0 0 0 0 0 0 0 0 0 0 0 0 0 0 0 0 127 0"/>
      <feOffset dy="-2"/>
      <feGaussianBlur stdDeviation="5"/>
      <feComposite in2="hardAlpha" k2="-1" k3="1" operator="arithmetic"/>
      <feColorMatrix values="0 0 0 0 0.760643 0 0 0 0 0.736719 0 0 0 0 0.854167 0 0 0 0.3 0"/>
      <feBlend in2="shape" result="effect3_innerShadow_218_10"/>
      <feColorMatrix in="SourceAlpha" result="hardAlpha" values="0 0 0 0 0 0 0 0 0 0 0 0 0 0 0 0 0 0 127 0"/>
      <feOffset dx="-2" dy="2"/>
      <feGaussianBlur stdDeviation="5"/>
      <feComposite in2="hardAlpha" k2="-1" k3="1" operator="arithmetic"/>
      <feColorMatrix values="0 0 0 0 0.773488 0 0 0 0 0.728333 0 0 0 0 0.95 0 0 0 1 0"/>
      <feBlend in2="effect3_innerShadow_218_10" result="effect4_innerShadow_218_10"/>
    </filter>
    <pattern id="f" width=".58" height=".391" patternContentUnits="objectBoundingBox">
      <use xlink:href="#j" transform="scale(.00264 .00178)"/>
    </pattern>
  </defs>
</svg>
