<svg xmlns="http://www.w3.org/2000/svg" xmlns:xlink="http://www.w3.org/1999/xlink" width="223" height="60" fill="none" viewBox="0 0 223 60">
  <g filter="url(#a)">
    <rect width="218.319" height="54.998" x="2" y="2.546" fill="url(#b)" rx="27.499"/>
    <rect width="220.319" height="56.998" x="1" y="1.546" stroke="url(#c)" stroke-width="2" rx="28.499"/>
    <rect width="220.319" height="56.998" x="1" y="1.546" stroke="url(#d)" stroke-width="2" rx="28.499"/>
    <rect width="220.319" height="56.998" x="1" y="1.546" stroke="url(#e)" stroke-opacity=".5" stroke-width="2" rx="28.499"/>
  </g>
  <rect width="218.319" height="56" x="2" y="2" fill="url(#f)" fill-opacity=".1" rx="28" style="mix-blend-mode:overlay"/>
  <path fill="#000" d="M63.495 43.611c-1.871 0-3.551-.288-5.04-.864-1.487-.576-2.747-1.416-3.78-2.52-1.031-1.128-1.823-2.496-2.375-4.104s-.828-3.456-.828-5.544c0-2.088.311-3.936.935-5.544.649-1.608 1.525-2.964 2.629-4.068a10.862 10.862 0 0 1 3.887-2.556c1.488-.576 3.084-.864 4.788-.864 1.032 0 1.969.084 2.808.252.84.144 1.572.312 2.197.504.624.192 1.14.396 1.547.612.408.216.697.372.864.468l-1.331 3.708c-.577-.36-1.405-.696-2.485-1.008-1.056-.336-2.208-.504-3.456-.504a7.89 7.89 0 0 0-3.023.576 6.519 6.519 0 0 0-2.449 1.656c-.672.744-1.2 1.68-1.584 2.808-.383 1.128-.575 2.436-.575 3.924 0 1.32.144 2.532.432 3.636.312 1.104.78 2.064 1.404 2.88a6.55 6.55 0 0 0 2.375 1.872c.96.432 2.112.648 3.456.648 1.608 0 2.917-.156 3.925-.468 1.007-.336 1.787-.648 2.34-.936l1.223 3.708c-.288.192-.684.384-1.188.576-.48.192-1.056.384-1.728.576-.671.168-1.427.3-2.267.396-.84.12-1.74.18-2.7.18Zm11.294-.54V15.855l4.356-.72v9.324c.48-.168 1.032-.312 1.656-.432.648-.12 1.284-.18 1.908-.18 1.512 0 2.76.216 3.744.648 1.008.408 1.812.996 2.412 1.764.6.744 1.02 1.644 1.26 2.7.264 1.056.396 2.232.396 3.528v10.584h-4.356v-9.9c0-1.008-.072-1.86-.216-2.556-.12-.72-.336-1.296-.648-1.728a2.366 2.366 0 0 0-1.188-.972c-.504-.216-1.128-.324-1.872-.324-.576 0-1.164.06-1.764.18-.6.12-1.044.228-1.332.324v14.976h-4.356Zm37.621-9.432c0 1.488-.216 2.844-.648 4.068-.432 1.224-1.044 2.268-1.836 3.132a8.215 8.215 0 0 1-2.88 2.016c-1.104.48-2.328.72-3.672.72-1.344 0-2.568-.24-3.672-.72a8.297 8.297 0 0 1-2.844-2.016c-.792-.864-1.416-1.908-1.872-3.132-.432-1.224-.648-2.58-.648-4.068 0-1.488.216-2.832.648-4.032.456-1.224 1.08-2.268 1.872-3.132a8.247 8.247 0 0 1 2.88-1.98c1.104-.48 2.316-.72 3.636-.72 1.32 0 2.532.24 3.636.72a7.83 7.83 0 0 1 2.88 1.98c.792.864 1.404 1.908 1.836 3.132.456 1.2.684 2.544.684 4.032Zm-4.464 0c0-1.872-.408-3.348-1.224-4.428-.792-1.104-1.908-1.656-3.348-1.656s-2.568.552-3.384 1.656c-.792 1.08-1.188 2.556-1.188 4.428 0 1.896.396 3.396 1.188 4.5.816 1.104 1.944 1.656 3.384 1.656s2.556-.552 3.348-1.656c.816-1.104 1.224-2.604 1.224-4.5Zm25.619 0c0 1.488-.216 2.844-.648 4.068-.432 1.224-1.044 2.268-1.836 3.132a8.215 8.215 0 0 1-2.88 2.016c-1.104.48-2.328.72-3.672.72-1.344 0-2.568-.24-3.672-.72a8.297 8.297 0 0 1-2.844-2.016c-.792-.864-1.416-1.908-1.872-3.132-.432-1.224-.648-2.58-.648-4.068 0-1.488.216-2.832.648-4.032.456-1.224 1.08-2.268 1.872-3.132a8.247 8.247 0 0 1 2.88-1.98c1.104-.48 2.316-.72 3.636-.72 1.32 0 2.532.24 3.636.72a7.83 7.83 0 0 1 2.88 1.98c.792.864 1.404 1.908 1.836 3.132.456 1.2.684 2.544.684 4.032Zm-4.464 0c0-1.872-.408-3.348-1.224-4.428-.792-1.104-1.908-1.656-3.348-1.656s-2.568.552-3.384 1.656c-.792 1.08-1.188 2.556-1.188 4.428 0 1.896.396 3.396 1.188 4.5.816 1.104 1.944 1.656 3.384 1.656s2.556-.552 3.348-1.656c.816-1.104 1.224-2.604 1.224-4.5Zm13.308 6.3c1.152 0 1.992-.132 2.52-.396.528-.288.792-.768.792-1.44 0-.624-.288-1.14-.864-1.548-.552-.408-1.476-.852-2.772-1.332a27.71 27.71 0 0 1-2.196-.9 8.056 8.056 0 0 1-1.692-1.152 4.927 4.927 0 0 1-1.152-1.548c-.264-.624-.396-1.38-.396-2.268 0-1.728.636-3.084 1.908-4.068 1.272-1.008 3-1.512 5.184-1.512 1.104 0 2.16.108 3.168.324 1.008.192 1.764.384 2.268.576l-.792 3.528c-.48-.216-1.092-.408-1.836-.576-.744-.192-1.608-.288-2.592-.288-.888 0-1.608.156-2.16.468-.552.288-.828.744-.828 1.368 0 .312.048.588.144.828.12.24.312.468.576.684.264.192.612.396 1.044.612.432.192.96.396 1.584.612 1.032.384 1.908.768 2.628 1.152.72.36 1.308.78 1.764 1.26.48.456.828.984 1.044 1.584.216.6.324 1.32.324 2.16 0 1.8-.672 3.168-2.016 4.104-1.32.912-3.216 1.368-5.688 1.368-1.656 0-2.988-.144-3.996-.432-1.008-.264-1.716-.48-2.124-.648l.756-3.636c.648.264 1.416.516 2.304.756.912.24 1.944.36 3.096.36Zm10.333-6.192c0-1.656.24-3.108.72-4.356.504-1.248 1.164-2.28 1.98-3.096a7.8 7.8 0 0 1 2.808-1.872 8.485 8.485 0 0 1 3.24-.648c2.592 0 4.608.804 6.048 2.412 1.464 1.608 2.196 4.008 2.196 7.2 0 .24-.012.516-.036.828a8 8 0 0 1-.036.792h-12.42c.12 1.512.648 2.688 1.584 3.528.96.816 2.34 1.224 4.14 1.224 1.056 0 2.016-.096 2.88-.288.888-.192 1.584-.396 2.088-.612l.576 3.564a8.04 8.04 0 0 1-1.008.396c-.408.12-.888.228-1.44.324-.528.12-1.104.216-1.728.288-.624.072-1.26.108-1.908.108-1.656 0-3.096-.24-4.32-.72-1.224-.504-2.232-1.188-3.024-2.052a8.607 8.607 0 0 1-1.764-3.096c-.384-1.2-.576-2.508-.576-3.924Zm12.636-1.944c0-.6-.084-1.164-.252-1.692a3.763 3.763 0 0 0-.756-1.404 3.04 3.04 0 0 0-1.188-.936c-.456-.24-1.008-.36-1.656-.36-.672 0-1.26.132-1.764.396-.504.24-.936.564-1.296.972-.336.408-.6.876-.792 1.404a7.605 7.605 0 0 0-.396 1.62h8.1Z"/>
  <defs>
    <radialGradient id="c" cx="0" cy="0" r="1" gradientTransform="rotate(166.239 109.967 14.885) scale(223.175 234.79)" gradientUnits="userSpaceOnUse">
      <stop stop-color="#151515" stop-opacity=".5"/>
      <stop offset=".969" stop-color="#151515" stop-opacity="0"/>
    </radialGradient>
    <radialGradient id="d" cx="0" cy="0" r="1" gradientTransform="matrix(213.2815 52.90432 -55.88364 225.2925 4.906 3.457)" gradientUnits="userSpaceOnUse">
      <stop stop-color="#fff" stop-opacity=".7"/>
      <stop offset="1" stop-color="#FDFDFD" stop-opacity="0"/>
    </radialGradient>
    <radialGradient id="e" cx="0" cy="0" r="1" gradientTransform="matrix(212.3137 52.08442 -54.82458 223.4835 5.874 3.64)" gradientUnits="userSpaceOnUse">
      <stop stop-color="#B2A4FF" stop-opacity="0"/>
      <stop offset="1" stop-color="#FEDFB6"/>
    </radialGradient>
    <linearGradient id="b" x1="5.681" x2="133.366" y1="4.185" y2="146.562" gradientUnits="userSpaceOnUse">
      <stop stop-color="#FFB8A1"/>
      <stop offset="1" stop-color="#fff" stop-opacity="0"/>
    </linearGradient>
    <pattern id="f" width="1.008" height="3.929" patternContentUnits="objectBoundingBox">
      <use xlink:href="#g" transform="scale(.00458 .01786)"/>
    </pattern>
    <filter id="a" width="262.319" height="98.998" x="-20" y="-19.454" color-interpolation-filters="sRGB" filterUnits="userSpaceOnUse">
      <feFlood flood-opacity="0" result="BackgroundImageFix"/>
      <feGaussianBlur in="BackgroundImage" stdDeviation="10"/>
      <feComposite in2="SourceAlpha" operator="in" result="effect1_backgroundBlur_291_19"/>
      <feBlend in="SourceGraphic" in2="effect1_backgroundBlur_291_19" result="shape"/>
    </filter>
  </defs>
</svg>
