<svg xmlns="http://www.w3.org/2000/svg" xmlns:xlink="http://www.w3.org/1999/xlink" width="500" height="732" fill="none" viewBox="0 0 500 732">
  <ellipse cx="123" cy="116.5" fill="url(#a)" rx="123" ry="116.5"/>
  <path fill="url(#b)" d="m419.048 117.039 4.831 64.676 58.227 12.608-55.24 27.364 4.831 64.676-38.972-47.765-55.241 27.364 31.155-56.884-38.973-47.765 58.227 12.609 31.155-56.883Z"/>
  <g filter="url(#c)">
    <path fill="url(#d)" d="M317.883 337h132v364h-132z" shape-rendering="crispEdges" transform="rotate(16.747 317.883 337)"/>
  </g>
  <rect width="310" height="543" x="33.169" y="84.971" fill="url(#e)" opacity=".1" rx="40" style="mix-blend-mode:overlay" transform="rotate(-5.853 33.169 84.97)"/>
  <g filter="url(#f)">
    <path fill="url(#g)" d="M123.278 620.802c-21.997 2.04-41.483-14.138-43.523-36.135L36.817 121.789c-2.04-21.997 14.137-41.483 36.134-43.523L301.87 57.03c21.997-2.04 41.483 14.138 43.524 36.135l42.937 462.878c2.041 21.997-14.137 41.483-36.134 43.524l-228.918 21.235Z" shape-rendering="crispEdges"/>
    <path stroke="url(#h)" d="M123.232 620.304c-21.722 2.015-40.965-13.961-42.98-35.683L37.315 121.743c-2.015-21.722 13.96-40.965 35.682-42.98l228.918-21.235c21.722-2.015 40.965 13.961 42.98 35.683l42.938 462.878c2.015 21.722-13.961 40.965-35.683 42.98l-228.918 21.235Z" shape-rendering="crispEdges"/>
  </g>
  <g filter="url(#i)">
    <path fill="#F3ECEC" d="M46.38 115.785c-1.69-16.483 10.302-31.214 26.784-32.903l220.843-22.639c16.482-1.69 31.213 10.302 32.902 26.785l48.439 472.523c1.689 16.482-10.303 31.214-26.785 32.903l-220.842 22.639c-16.483 1.689-31.214-10.303-32.903-26.785L46.38 115.785Z"/>
    <path stroke="url(#j)" d="M46.877 115.734c-1.662-16.208 10.13-30.694 26.338-32.355l220.843-22.638c16.207-1.662 30.693 10.13 32.354 26.338l48.438 472.523c1.662 16.208-10.13 30.693-26.338 32.355L127.67 614.595c-16.208 1.662-30.693-10.13-32.355-26.338L46.877 115.734Z"/>
  </g>
  <rect width="259" height="511" x="56.685" y="98.644" fill="url(#k)" rx="28" transform="rotate(-5.853 56.685 98.644)"/>
  <path fill="url(#l)" d="M163.9 492.931a132.407 132.407 0 0 0 1.729-3.844 47.322 47.322 0 0 0 1.483-3.891l3.343-.343a146.48 146.48 0 0 1-2.277 5.324 109.821 109.821 0 0 1-2.566 5.329l.666 6.494-3.009.309-.66-6.447a127.436 127.436 0 0 1-3.623-4.743 145.348 145.348 0 0 1-3.31-4.751l3.534-.362a53.539 53.539 0 0 0 2.217 3.512 83.815 83.815 0 0 0 2.473 3.413Zm19.361 1.007c.101.987.05 1.901-.153 2.742s-.538 1.575-1.005 2.202a5.471 5.471 0 0 1-1.772 1.533c-.7.393-1.495.636-2.387.727-.891.091-1.719.016-2.484-.228a5.526 5.526 0 0 1-2.023-1.143c-.584-.52-1.069-1.17-1.455-1.95-.369-.783-.605-1.667-.706-2.654-.101-.987-.049-1.893.156-2.718.219-.843.562-1.578 1.028-2.204a5.496 5.496 0 0 1 1.776-1.509c.699-.394 1.487-.635 2.362-.725.876-.09 1.696-.013 2.46.23a5.21 5.21 0 0 1 2.045 1.118c.584.519 1.061 1.169 1.431 1.952.384.765.626 1.64.727 2.627Zm-2.96.304c-.127-1.242-.498-2.193-1.113-2.854-.6-.678-1.378-.968-2.333-.87-.955.098-1.665.54-2.132 1.328-.451.77-.614 1.776-.486 3.017.129 1.258.493 2.226 1.093 2.904.617.677 1.402.966 2.357.868.955-.098 1.658-.54 2.108-1.326.466-.787.635-1.81.506-3.067Zm16.542 4.239c-.542.2-1.252.418-2.128.652a16.76 16.76 0 0 1-2.913.54c-1.002.103-1.861.046-2.574-.17-.698-.218-1.28-.56-1.746-1.027a4.826 4.826 0 0 1-1.046-1.727 9.89 9.89 0 0 1-.502-2.313l-.717-6.995 2.889-.296.67 6.542c.137 1.337.426 2.272.867 2.806.457.532 1.17.748 2.141.649.35-.036.715-.089 1.094-.16.394-.073.685-.143.871-.21l-1.036-10.099 2.889-.297 1.241 12.105Zm9.579-10.584a8.007 8.007 0 0 0-1.027-.136 6.58 6.58 0 0 0-2.488.207c-.344.099-.585.18-.723.243l1.025 10.003-2.889.297-1.218-11.89c.536-.264 1.208-.526 2.018-.786.824-.278 1.745-.468 2.764-.573.191-.019.415-.026.673-.021a6.26 6.26 0 0 1 .774.018c.258.005.51.028.755.067.244.023.44.051.588.084l-.252 2.487Zm12.992 8.898c-.861.072-1.587.05-2.178-.067-.575-.118-1.046-.319-1.413-.603a2.864 2.864 0 0 1-.841-1.144 6.745 6.745 0 0 1-.362-1.652l-1.473-14.372 2.839-.774 1.466 14.301c.036.35.09.642.163.876.088.232.212.429.374.589.159.145.363.252.612.323.263.054.587.085.974.093l-.161 2.43Zm1.153-6.609c-.112-1.098-.052-2.077.182-2.937.249-.862.617-1.592 1.102-2.188a5.209 5.209 0 0 1 1.735-1.433 5.663 5.663 0 0 1 2.105-.65c1.719-.176 3.111.22 4.175 1.189 1.08.967 1.729 2.509 1.946 4.626.016.159.027.343.032.551.02.191.03.367.03.528l-8.237.844c.183.995.613 1.739 1.291 2.232.692.476 1.635.653 2.829.531.7-.072 1.33-.201 1.89-.387.576-.188 1.024-.371 1.343-.548l.624 2.324a5.31 5.31 0 0 1-.641.332 8.893 8.893 0 0 1-.933.312 11.073 11.073 0 0 1-2.385.51c-1.098.113-2.069.051-2.913-.184-.846-.251-1.561-.636-2.145-1.155a5.746 5.746 0 0 1-1.381-1.933 8.572 8.572 0 0 1-.649-2.564Zm8.248-2.148a3.686 3.686 0 0 0-.282-1.105 2.518 2.518 0 0 0-.597-.88 2.029 2.029 0 0 0-.851-.54c-.319-.128-.693-.17-1.123-.126-.446.046-.827.174-1.143.383a2.662 2.662 0 0 0-.793.733 3.135 3.135 0 0 0-.43.985c-.091.363-.142.73-.153 1.101l5.372-.551Zm8.074.089c.126 1.226.481 2.098 1.065 2.617.598.502 1.319.71 2.163.623a4.225 4.225 0 0 0 1.269-.323c.401-.17.72-.355.957-.556l-.664-6.471a6.666 6.666 0 0 0-.776-.041 7.743 7.743 0 0 0-1.153.046c-1.051.108-1.819.54-2.304 1.298-.487.741-.672 1.677-.557 2.807Zm8.59 4.476c.204 1.989-.156 3.498-1.081 4.525-.908 1.026-2.404 1.646-4.489 1.86-.764.078-1.519.091-2.264.039a12.552 12.552 0 0 1-2.009-.301l.273-2.513a8.949 8.949 0 0 0 1.723.33c.649.063 1.34.056 2.072-.019 1.162-.119 1.965-.443 2.41-.971.444-.528.619-1.261.522-2.2l-.049-.478a7.354 7.354 0 0 1-1.102.547c-.447.191-.972.317-1.577.379a6.15 6.15 0 0 1-2.236-.157 4.744 4.744 0 0 1-1.81-.948c-.512-.446-.941-1.021-1.287-1.726-.331-.722-.547-1.568-.646-2.539a7.51 7.51 0 0 1 .149-2.549 5.61 5.61 0 0 1 1.017-2.082 5.7 5.7 0 0 1 1.828-1.466c.733-.381 1.585-.621 2.556-.721a16.05 16.05 0 0 1 2.696-.059c.858.057 1.59.135 2.195.233l1.109 10.816Zm7.751-1.567c.891-.091 1.563-.208 2.014-.351l-.328-3.199a6.53 6.53 0 0 0-1.717-.041 6.719 6.719 0 0 0-.971.172c-.314.08-.599.198-.857.353a1.597 1.597 0 0 0-.564.612c-.136.24-.187.534-.151.884.07.685.334 1.14.792 1.367.456.21 1.05.278 1.782.203Zm-1.343-10.743c.955-.098 1.771-.061 2.448.111s1.229.453 1.655.844a3.6 3.6 0 0 1 .997 1.49c.237.587.393 1.246.468 1.978l.776 7.569c-.436.141-1.101.322-1.995.542-.877.235-1.88.41-3.01.526a9.198 9.198 0 0 1-2.075-.005c-.636-.079-1.193-.256-1.671-.528a3.44 3.44 0 0 1-1.154-1.136c-.291-.485-.475-1.102-.551-1.85-.074-.716 0-1.335.22-1.856.236-.523.577-.96 1.023-1.311a4.634 4.634 0 0 1 1.579-.838 9.126 9.126 0 0 1 1.96-.418 7.547 7.547 0 0 1 1.01-.031c.353-.004.734.022 1.141.076l-.048-.477a3.774 3.774 0 0 0-.218-.943 1.834 1.834 0 0 0-.51-.744 1.817 1.817 0 0 0-.844-.468c-.332-.095-.744-.117-1.238-.066-.668.068-1.276.179-1.823.331a8.16 8.16 0 0 0-1.327.474l-.598-2.303c.353-.165.873-.347 1.561-.546a12.644 12.644 0 0 1 2.224-.421Zm8.341 5.78a7.611 7.611 0 0 1 .166-2.623 6.26 6.26 0 0 1 1.002-2.226 5.784 5.784 0 0 1 1.816-1.585c.73-.413 1.572-.668 2.527-.766a8.786 8.786 0 0 1 3.409.302l-.379 2.427a6.48 6.48 0 0 0-1.183-.24 5.965 5.965 0 0 0-1.351-.006c-1.13.115-1.953.562-2.469 1.338-.517.761-.709 1.786-.577 3.075.127 1.242.507 2.2 1.139 2.875.63.659 1.606.921 2.927.786a7.511 7.511 0 0 0 1.442-.293 6.867 6.867 0 0 0 1.205-.485l.65 2.345c-.302.192-.772.385-1.412.58a10.24 10.24 0 0 1-1.962.394c-1.066.109-2.014.045-2.842-.192a5.64 5.64 0 0 1-2.097-1.16 5.888 5.888 0 0 1-1.359-1.959 8.797 8.797 0 0 1-.652-2.587Zm21.479-8.523c-.804 4.875-1.859 9.326-3.167 13.352a13.013 13.013 0 0 1-.791 1.939 5.496 5.496 0 0 1-.992 1.381c-.38.376-.817.662-1.312.858-.493.211-1.073.351-1.742.42a6.426 6.426 0 0 1-1.351-.007c-.44-.051-.777-.121-1.011-.21l.288-2.369a4.68 4.68 0 0 0 1.729.16c.748-.076 1.31-.319 1.687-.728.394-.394.711-.981.953-1.762a69.836 69.836 0 0 1-3.214-5.461 65.746 65.746 0 0 1-2.896-6.362l3.08-.315c.228.652.493 1.356.796 2.114.319.755.655 1.525 1.009 2.309.352.768.72 1.534 1.104 2.299.384.765.762 1.474 1.135 2.127.364-1.468.687-3.021.97-4.659.281-1.653.527-3.246.74-4.78l2.985-.306Zm11.473 11.442-2.889.296-1.28-12.487 2.889-.296 1.28 12.487Zm-1.344-16.172c.055.541-.076.989-.393 1.343a1.792 1.792 0 0 1-1.193.605 1.82 1.82 0 0 1-1.314-.348c-.383-.282-.602-.694-.657-1.235-.058-.557.073-1.013.39-1.367a1.824 1.824 0 0 1 1.217-.607c.477-.049.907.068 1.29.35s.603.702.66 1.259Zm7.705 13.421c.764-.079 1.312-.223 1.645-.434.33-.227.473-.564.427-1.009-.042-.414-.268-.737-.678-.968-.394-.233-1.037-.465-1.929-.695a18.12 18.12 0 0 1-1.518-.448 5.35 5.35 0 0 1-1.2-.649 3.261 3.261 0 0 1-.869-.948c-.218-.396-.357-.888-.417-1.477-.118-1.146.212-2.089.989-2.828.775-.755 1.886-1.206 3.335-1.355.732-.075 1.44-.075 2.123 0 .681.058 1.196.134 1.543.227l-.285 2.394a6.535 6.535 0 0 0-1.257-.257c-.506-.077-1.086-.082-1.739-.015-.588.06-1.055.213-1.4.457-.347.229-.499.55-.456.964.021.207.071.387.151.539.096.151.239.289.429.415.188.109.433.221.734.335.299.097.663.197 1.092.298.711.184 1.318.379 1.821.585.502.19.921.428 1.256.716.349.27.616.596.8.979.184.383.304.854.361 1.411.123 1.193-.23 2.146-1.058 2.859-.813.694-2.039 1.125-3.679 1.293-1.098.113-1.991.108-2.679-.014-.687-.107-1.171-.202-1.453-.286l.254-2.462c.448.131.974.245 1.58.344.621.097 1.313.107 2.077.029Zm-128.144 41.282c.764-.078 1.312-.223 1.644-.434.331-.227.473-.563.427-1.008-.042-.414-.268-.737-.678-.968-.394-.233-1.037-.465-1.929-.695a18.478 18.478 0 0 1-1.517-.448 5.376 5.376 0 0 1-1.201-.649 3.302 3.302 0 0 1-.869-.948c-.217-.396-.356-.888-.417-1.477-.117-1.146.212-2.089.989-2.828.775-.755 1.887-1.207 3.335-1.355a10.11 10.11 0 0 1 2.123-.001c.682.059 1.196.135 1.544.228l-.286 2.394a6.46 6.46 0 0 0-1.257-.257c-.506-.077-1.086-.082-1.738-.015-.589.06-1.056.213-1.401.457-.346.229-.498.55-.456.964.021.207.072.386.152.539.096.151.239.289.428.414.188.11.433.221.734.335.3.098.664.198 1.092.298.711.185 1.318.38 1.822.586.502.19.92.428 1.255.716.349.269.616.596.8.979.184.383.305.853.362 1.411.122 1.193-.23 2.146-1.058 2.858-.814.695-2.04 1.126-3.679 1.294-1.099.113-1.992.108-2.68-.015-.686-.106-1.17-.201-1.452-.285l.254-2.463c.447.131.974.246 1.579.345.621.097 1.314.107 2.078.028Zm11.943-1.176c.891-.091 1.563-.208 2.015-.351l-.328-3.199a6.542 6.542 0 0 0-1.718-.041c-.318.032-.642.09-.971.172-.314.08-.599.198-.857.353a1.593 1.593 0 0 0-.564.613c-.136.239-.187.533-.151.884.071.684.334 1.139.792 1.366.456.211 1.05.278 1.782.203Zm-1.343-10.743c.955-.098 1.771-.061 2.448.111s1.229.453 1.655.844a3.6 3.6 0 0 1 .997 1.49c.237.587.393 1.246.468 1.978l.776 7.569c-.436.141-1.101.322-1.995.542-.876.235-1.88.41-3.01.526a9.198 9.198 0 0 1-2.075-.005c-.636-.079-1.192-.255-1.671-.528a3.44 3.44 0 0 1-1.154-1.136c-.291-.485-.474-1.102-.551-1.85-.074-.716 0-1.335.22-1.856.236-.523.577-.96 1.023-1.311a4.642 4.642 0 0 1 1.579-.837 9.007 9.007 0 0 1 1.96-.418 7.542 7.542 0 0 1 1.01-.032c.353-.004.734.022 1.142.076l-.049-.477a3.774 3.774 0 0 0-.218-.943 1.824 1.824 0 0 0-.51-.744 1.817 1.817 0 0 0-.844-.468c-.332-.095-.744-.117-1.238-.066-.668.068-1.276.179-1.823.331-.547.153-.99.311-1.327.474l-.598-2.303c.353-.165.873-.347 1.561-.546a12.662 12.662 0 0 1 2.224-.421Zm12.859-7.108a7.343 7.343 0 0 1 1.786.01c.521.059.913.123 1.178.193l-.304 2.443a4.551 4.551 0 0 0-.987-.212 5.202 5.202 0 0 0-1.158-.002c-.462.047-.845.159-1.148.335a1.83 1.83 0 0 0-.708.627 2.156 2.156 0 0 0-.315.925 4.72 4.72 0 0 0-.007 1.111l.086.835 4.536-.465.247 2.412-4.536.465 1.033 10.075-2.889.296-1.371-13.37c-.165-1.607.128-2.908.879-3.902.749-1.009 1.975-1.602 3.678-1.776Zm4.575 12.004c-.113-1.098-.052-2.078.181-2.938.25-.862.617-1.591 1.103-2.188a5.196 5.196 0 0 1 1.735-1.432 5.659 5.659 0 0 1 2.104-.65c1.719-.176 3.111.22 4.175 1.188 1.081.967 1.729 2.509 1.946 4.626.017.159.027.343.033.552.019.191.029.366.03.527l-8.237.845c.182.994.612 1.738 1.29 2.232.692.476 1.635.652 2.829.53.7-.072 1.33-.201 1.89-.387.576-.188 1.024-.37 1.344-.548l.624 2.325a5.355 5.355 0 0 1-.642.331 8.723 8.723 0 0 1-.933.313 11.338 11.338 0 0 1-2.384.51c-1.098.112-2.07.051-2.914-.184-.846-.251-1.561-.636-2.145-1.156a5.72 5.72 0 0 1-1.38-1.933 8.514 8.514 0 0 1-.649-2.563Zm8.248-2.148a3.709 3.709 0 0 0-.282-1.105 2.509 2.509 0 0 0-.597-.88 2.038 2.038 0 0 0-.852-.54c-.318-.128-.693-.17-1.122-.126-.446.045-.827.173-1.143.382a2.68 2.68 0 0 0-.794.733 3.168 3.168 0 0 0-.43.985c-.091.363-.142.73-.152 1.101l5.372-.55Zm18.456-2.278a77.104 77.104 0 0 1-.773 4.229 115.251 115.251 0 0 1-.857 3.875l-2.364.242c-.393-.699-.813-1.5-1.259-2.404a79.41 79.41 0 0 1-1.359-2.9c-.46-1.031-.925-2.117-1.396-3.259a164.669 164.669 0 0 1-1.396-3.5l3.056-.313c.212.654.453 1.361.724 2.121.27.745.549 1.512.839 2.303.289.774.584 1.532.885 2.273.301.741.596 1.419.884 2.033.163-.757.317-1.537.46-2.339.158-.805.301-1.607.428-2.409.127-.801.241-1.576.341-2.326.114-.768.209-1.486.286-2.153l2.22-.227c.21.637.441 1.321.693 2.052.25.714.511 1.451.782 2.211.286.759.581 1.517.884 2.274.319.756.635 1.487.949 2.195a83.667 83.667 0 0 0 .834-4.573c.139-.835.266-1.644.378-2.427.111-.8.204-1.541.279-2.224l2.984-.306c-.208 1.26-.427 2.496-.657 3.71a123.009 123.009 0 0 1-.705 3.474 81.245 81.245 0 0 1-.742 3.116 38.582 38.582 0 0 1-.77 2.612l-2.34.24a327.794 327.794 0 0 1-1.673-3.616 77.867 77.867 0 0 1-1.615-3.984Zm14.659 6.434-2.889.296-1.28-12.486 2.889-.296 1.28 12.486Zm-1.344-16.171c.056.541-.075.989-.393 1.343a1.794 1.794 0 0 1-1.192.605 1.821 1.821 0 0 1-1.315-.348c-.383-.282-.602-.694-.657-1.235-.057-.557.073-1.013.39-1.367a1.826 1.826 0 0 1 1.217-.607 1.79 1.79 0 0 1 1.29.35c.383.282.603.702.66 1.259Zm3.03.051 2.84-.773.387 3.772 4.44-.455.248 2.411-4.441.455.521 5.086c.103 1.002.336 1.702.698 2.099.362.398.925.557 1.689.479a5.19 5.19 0 0 0 1.368-.309c.402-.154.718-.291.947-.411l.713 2.243a9.87 9.87 0 0 1-1.269.564c-.525.215-1.154.36-1.886.435-.891.091-1.652.049-2.281-.128-.613-.179-1.118-.473-1.514-.882-.397-.426-.7-.95-.909-1.572-.21-.638-.357-1.371-.442-2.198l-1.109-10.816Zm11.501 14.769-1.85-18.05 2.84-.774.634 6.184a7.844 7.844 0 0 1 1.069-.399 6.894 6.894 0 0 1 1.253-.249c1.003-.103 1.845-.044 2.527.175.696.202 1.269.537 1.719 1.006.449.453.789 1.021 1.02 1.705.246.682.414 1.453.502 2.313l.72 7.019-2.889.296-.673-6.565c-.069-.669-.175-1.229-.317-1.681-.129-.469-.311-.837-.548-1.102a1.574 1.574 0 0 0-.854-.564c-.348-.109-.77-.138-1.263-.087a6.01 6.01 0 0 0-1.158.239c-.389.12-.677.222-.861.305l1.018 9.932-2.889.297Zm29.194-3.379c-.542.2-1.252.418-2.128.652-.875.251-1.846.431-2.912.54-1.003.103-1.862.046-2.575-.17-.698-.218-1.28-.561-1.746-1.028-.45-.468-.799-1.044-1.046-1.726a9.89 9.89 0 0 1-.502-2.313l-.717-6.995 2.889-.296.67 6.542c.137 1.337.426 2.272.867 2.806.457.532 1.17.748 2.141.649.35-.036.715-.09 1.094-.161.394-.072.685-.142.871-.209l-1.035-10.1 2.888-.296 1.241 12.105Zm6.392-2.368c.764-.079 1.312-.223 1.645-.434.33-.227.473-.563.427-1.009-.043-.414-.269-.737-.678-.968-.394-.233-1.037-.465-1.929-.695a18.515 18.515 0 0 1-1.518-.447 5.41 5.41 0 0 1-1.2-.649 3.265 3.265 0 0 1-.869-.949c-.218-.396-.357-.888-.417-1.477-.118-1.146.212-2.088.989-2.828.775-.754 1.886-1.206 3.335-1.355.732-.075 1.44-.075 2.123 0 .681.059 1.196.135 1.543.228l-.285 2.393a6.613 6.613 0 0 0-1.257-.257c-.507-.077-1.086-.082-1.739-.015-.589.061-1.056.213-1.4.457-.347.229-.499.55-.457.964.022.207.072.387.152.539.096.151.239.289.429.415.188.109.433.221.734.335.299.098.663.197 1.092.298.71.184 1.317.38 1.821.585.502.19.92.429 1.256.716.349.27.616.596.8.979.184.384.304.854.361 1.411.123 1.194-.23 2.147-1.058 2.859-.813.694-2.04 1.126-3.679 1.294-1.098.112-1.991.107-2.679-.015-.687-.107-1.171-.202-1.453-.286l.254-2.462c.448.131.974.246 1.58.344.621.098 1.313.107 2.077.029Zm10.844-.605c.057.557-.088 1.03-.434 1.419-.33.388-.758.609-1.283.663-.541.055-1.013-.073-1.415-.386-.402-.313-.631-.748-.688-1.305-.057-.557.079-1.029.409-1.417a1.86 1.86 0 0 1 1.305-.688c.525-.054.99.083 1.393.412.418.311.656.745.713 1.302Z"/>
  <path fill="url(#m)" d="M81.422 202.664h231v240h-231z" transform="rotate(-5.853 81.422 202.664)"/>
  <path fill="url(#n)" d="M150.471 123.699h71v69h-71z" transform="rotate(-9.743 150.471 123.699)"/>
  <ellipse cx="237.813" cy="609.366" fill="url(#o)" rx="119.5" ry="9" transform="rotate(-5.478 237.813 609.366)"/>
  <defs>
    <linearGradient id="a" x1="123" x2="123" y1="0" y2="233" gradientUnits="userSpaceOnUse">
      <stop stop-color="#FFB4B4"/>
      <stop offset="1" stop-color="#FFB4B4" stop-opacity="0"/>
    </linearGradient>
    <linearGradient id="d" x1="383.883" x2="383.883" y1="337" y2="701" gradientUnits="userSpaceOnUse">
      <stop stop-color="#FFDEB4"/>
      <stop offset="1" stop-color="#FFDEB4" stop-opacity="0"/>
    </linearGradient>
    <linearGradient id="g" x1="-39.814" x2="186.388" y1="864.217" y2="533.535" gradientUnits="userSpaceOnUse">
      <stop stop-color="#fff" stop-opacity=".4"/>
      <stop offset="1" stop-color="#fff" stop-opacity=".1"/>
    </linearGradient>
    <linearGradient id="h" x1="126.682" x2="-55.211" y1="528.573" y2="891.358" gradientUnits="userSpaceOnUse">
      <stop stop-color="#fff"/>
      <stop offset=".286" stop-color="#EDC3C2"/>
      <stop offset=".635" stop-color="#FAC2BF"/>
      <stop offset="1" stop-color="#FEBCB9"/>
    </linearGradient>
    <linearGradient id="j" x1="43.32" x2="378.407" y1="85.941" y2="589.395" gradientUnits="userSpaceOnUse">
      <stop stop-color="#776060"/>
      <stop offset="1" stop-color="#B78B8B" stop-opacity="0"/>
    </linearGradient>
    <linearGradient id="k" x1="186.186" x2="186.186" y1="98.644" y2="609.644" gradientUnits="userSpaceOnUse">
      <stop stop-color="#EBBD6A" stop-opacity="0"/>
      <stop offset="1" stop-color="#FBDEA9"/>
    </linearGradient>
    <linearGradient id="o" x1="237.813" x2="237.813" y1="600.366" y2="618.366" gradientUnits="userSpaceOnUse">
      <stop stop-color="#F9F4E7"/>
      <stop offset="1" stop-color="#E8C97C" stop-opacity="0"/>
    </linearGradient>
    <pattern id="e" width=".71" height=".405" patternContentUnits="objectBoundingBox">
      <use xlink:href="#p" transform="scale(.00323 .00184)"/>
    </pattern>
    <pattern id="m" width="1" height="1" patternContentUnits="objectBoundingBox">
      <use xlink:href="#q" transform="matrix(.0023 0 0 .00222 -.02 0)"/>
    </pattern>
    <pattern id="n" width="1" height="1" patternContentUnits="objectBoundingBox">
      <use xlink:href="#r" transform="scale(.00272 .0028)"/>
    </pattern>
    <filter id="c" width="239.284" height="394.597" x="209" y="337" color-interpolation-filters="sRGB" filterUnits="userSpaceOnUse">
      <feFlood flood-opacity="0" result="BackgroundImageFix"/>
      <feColorMatrix in="SourceAlpha" result="hardAlpha" values="0 0 0 0 0 0 0 0 0 0 0 0 0 0 0 0 0 0 127 0"/>
      <feOffset dy="4"/>
      <feGaussianBlur stdDeviation="2"/>
      <feComposite in2="hardAlpha" operator="out"/>
      <feColorMatrix values="0 0 0 0 0 0 0 0 0 0 0 0 0 0 0 0 0 0 0.25 0"/>
      <feBlend in2="BackgroundImageFix" result="effect1_dropShadow_311_103"/>
      <feBlend in="SourceGraphic" in2="effect1_dropShadow_311_103" result="shape"/>
    </filter>
    <filter id="f" width="431.86" height="644.118" x="-3.356" y="16.857" color-interpolation-filters="sRGB" filterUnits="userSpaceOnUse">
      <feFlood flood-opacity="0" result="BackgroundImageFix"/>
      <feGaussianBlur in="BackgroundImage" stdDeviation="20"/>
      <feComposite in2="SourceAlpha" operator="in" result="effect1_backgroundBlur_311_103"/>
      <feColorMatrix in="SourceAlpha" result="hardAlpha" values="0 0 0 0 0 0 0 0 0 0 0 0 0 0 0 0 0 0 127 0"/>
      <feOffset dy="4"/>
      <feGaussianBlur stdDeviation="12"/>
      <feComposite in2="hardAlpha" operator="out"/>
      <feColorMatrix values="0 0 0 0 0 0 0 0 0 0 0 0 0 0 0 0 0 0 0.2 0"/>
      <feBlend in2="effect1_backgroundBlur_311_103" result="effect2_dropShadow_311_103"/>
      <feBlend in="SourceGraphic" in2="effect2_dropShadow_311_103" result="shape"/>
    </filter>
    <filter id="i" width="409.286" height="635.167" x="6.221" y="20.084" color-interpolation-filters="sRGB" filterUnits="userSpaceOnUse">
      <feFlood flood-opacity="0" result="BackgroundImageFix"/>
      <feBlend in="SourceGraphic" in2="BackgroundImageFix" result="shape"/>
      <feGaussianBlur result="effect1_foregroundBlur_311_103" stdDeviation="20"/>
    </filter>
    <radialGradient id="b" cx="0" cy="0" r="1" gradientTransform="rotate(102.218 117.32 263.828) scale(90 82)" gradientUnits="userSpaceOnUse">
      <stop stop-color="#B2A4FF"/>
      <stop offset="1" stop-color="#B2A4FF" stop-opacity="0"/>
    </radialGradient>
    <radialGradient id="l" cx="0" cy="0" r="1" gradientTransform="matrix(139.55832 -12.79905 10.14634 110.6337 231.962 500.837)" gradientUnits="userSpaceOnUse">
      <stop stop-color="#C869AE"/>
      <stop offset=".531" stop-color="#FF00B9" stop-opacity=".469"/>
      <stop offset="1" stop-color="#FF00B9" stop-opacity="0"/>
    </radialGradient>
  </defs>
</svg>
