<svg xmlns="http://www.w3.org/2000/svg" width="469" height="163" fill="none" viewBox="0 0 469 163">
  <path stroke="#333747" stroke-width="4.682" d="M132.077 81.456c0 2.563-.063 5.115-.183 7.666a157.59 157.59 0 0 1-.554 7.593c-.24 2.511-.543 4.994-.908 7.449a135.96 135.96 0 0 1-1.263 7.227 124.081 124.081 0 0 1-1.6 6.941 111.107 111.107 0 0 1-1.925 6.582 96.555 96.555 0 0 1-2.228 6.17 85.072 85.072 0 0 1-2.514 5.686 70.341 70.341 0 0 1-2.777 5.154 56.964 56.964 0 0 1-3.005 4.573 46.516 46.516 0 0 1-3.211 3.95 38.02 38.02 0 0 1-3.382 3.282 29.42 29.42 0 0 1-3.531 2.586 24.615 24.615 0 0 1-3.628 1.867 21.019 21.019 0 0 1-3.702 1.124 18.71 18.71 0 0 1-7.479 0 20.944 20.944 0 0 1-3.708-1.124 24.639 24.639 0 0 1-3.628-1.867 28.92 28.92 0 0 1-3.525-2.586 38.001 38.001 0 0 1-3.388-3.282 46.535 46.535 0 0 1-3.21-3.95 57.183 57.183 0 0 1-3.006-4.573 70.34 70.34 0 0 1-2.776-5.154 87.338 87.338 0 0 1-2.514-5.686 96.068 96.068 0 0 1-2.228-6.17 111.333 111.333 0 0 1-1.926-6.582 124.705 124.705 0 0 1-1.6-6.941c-.48-2.369-.902-4.778-1.262-7.227a142.756 142.756 0 0 1-.908-7.45 157.59 157.59 0 0 1-.555-7.592c-.12-2.551-.183-5.103-.183-7.666 0-2.563.063-5.12.183-7.672.126-2.546.309-5.08.554-7.592.24-2.512.543-4.995.909-7.45a136.1 136.1 0 0 1 1.263-7.226 125.8 125.8 0 0 1 1.6-6.941 112.335 112.335 0 0 1 1.925-6.582 97.376 97.376 0 0 1 2.228-6.165 88.835 88.835 0 0 1 2.514-5.691 72.779 72.779 0 0 1 2.776-5.155 57.08 57.08 0 0 1 3.006-4.572 47.471 47.471 0 0 1 3.21-3.95 37.913 37.913 0 0 1 3.388-3.283 30.205 30.205 0 0 1 3.525-2.586 23.984 23.984 0 0 1 3.628-1.86 20.468 20.468 0 0 1 3.708-1.13 18.771 18.771 0 0 1 7.479 0 20.54 20.54 0 0 1 3.702 1.13 23.962 23.962 0 0 1 3.628 1.86 30.79 30.79 0 0 1 3.531 2.586 37.932 37.932 0 0 1 3.382 3.283 47.452 47.452 0 0 1 3.211 3.95 56.862 56.862 0 0 1 3.005 4.572 72.78 72.78 0 0 1 2.777 5.155 86.495 86.495 0 0 1 2.514 5.69 97.876 97.876 0 0 1 2.228 6.166c.697 2.13 1.337 4.327 1.925 6.582.589 2.26 1.126 4.578 1.6 6.94.48 2.37.903 4.779 1.263 7.228a143.2 143.2 0 0 1 .908 7.449c.246 2.512.428 5.046.554 7.592.12 2.552.183 5.109.183 7.672Z"/>
  <path fill="#fff" fill-opacity=".996" d="M121.61 15.365c0 .405-.045.805-.137 1.199-.085.4-.217.782-.394 1.159a6.386 6.386 0 0 1-1.508 1.998 7.137 7.137 0 0 1-1.057.764 7.743 7.743 0 0 1-2.514.919 8.235 8.235 0 0 1-1.354.115c-.457 0-.914-.04-1.36-.115a7.768 7.768 0 0 1-2.514-.919 7.465 7.465 0 0 1-1.057-.764 6.35 6.35 0 0 1-.862-.937 5.994 5.994 0 0 1-.646-1.061 5.36 5.36 0 0 1-.394-1.16 5.253 5.253 0 0 1-.137-1.198c0-.405.045-.805.137-1.199.086-.4.217-.782.394-1.159a6.284 6.284 0 0 1 1.508-1.992 7.04 7.04 0 0 1 1.057-.765 7.067 7.067 0 0 1 1.206-.57 7.249 7.249 0 0 1 1.308-.349 7.726 7.726 0 0 1 2.714 0c.451.075.886.194 1.308.349a7.077 7.077 0 0 1 2.263 1.335c.32.286.611.594.863.93.257.338.468.691.645 1.063.177.376.309.759.394 1.158.092.394.137.794.137 1.199Z"/>
  <path fill="#333747" fill-opacity=".996" d="M119.691 15.365a4.945 4.945 0 0 1-1.52 3.556 5.197 5.197 0 0 1-1.691 1.096 5.357 5.357 0 0 1-1.988.383 5.411 5.411 0 0 1-1.994-.383 5.17 5.17 0 0 1-1.685-1.095 4.945 4.945 0 0 1-1.126-1.633 4.853 4.853 0 0 1-.4-1.924c0-.668.137-1.313.4-1.93a4.944 4.944 0 0 1 1.126-1.632 5.167 5.167 0 0 1 1.685-1.096 5.41 5.41 0 0 1 1.994-.382c.691 0 1.354.131 1.988.382.64.257 1.2.622 1.691 1.096a4.944 4.944 0 0 1 1.52 3.562Z"/>
  <path fill="#7DD0A7" fill-opacity=".996" d="M118.537 15.394c0 .496-.097.976-.303 1.432a3.735 3.735 0 0 1-.874 1.216 4.132 4.132 0 0 1-1.308.811 4.331 4.331 0 0 1-3.091 0 4.06 4.06 0 0 1-1.309-.81 3.735 3.735 0 0 1-.874-1.216 3.486 3.486 0 0 1 0-2.865 3.7 3.7 0 0 1 .874-1.211 3.964 3.964 0 0 1 1.309-.81 4.197 4.197 0 0 1 1.542-.286 4.21 4.21 0 0 1 1.549.285c.491.189.925.457 1.308.81.377.349.668.754.874 1.211.206.462.303.936.303 1.433Z"/>
  <path stroke="#333747" stroke-width="4.688" d="M113.76 54.382a187.784 187.784 0 0 1 6.702 4.504c2.2 1.546 4.342 3.128 6.433 4.743a171.932 171.932 0 0 1 6.096 4.938 160.818 160.818 0 0 1 5.708 5.075 145.63 145.63 0 0 1 5.25 5.171 127.524 127.524 0 0 1 4.754 5.218 107.285 107.285 0 0 1 4.205 5.206 88.372 88.372 0 0 1 3.622 5.154 73.305 73.305 0 0 1 2.999 5.046 57.052 57.052 0 0 1 2.348 4.893 44.376 44.376 0 0 1 1.674 4.686c.446 1.53.777 3.008.989 4.447.211 1.438.308 2.82.291 4.155a20.22 20.22 0 0 1-.417 3.825 16.735 16.735 0 0 1-1.108 3.454 15.633 15.633 0 0 1-1.794 3.059 16.99 16.99 0 0 1-2.468 2.632 19.468 19.468 0 0 1-3.108 2.169 23.956 23.956 0 0 1-3.725 1.701 31.707 31.707 0 0 1-4.308 1.21c-1.526.32-3.143.554-4.845.702a54.99 54.99 0 0 1-5.331.194 70.542 70.542 0 0 1-5.776-.319 86.8 86.8 0 0 1-6.164-.828c-2.108-.36-4.274-.805-6.485-1.33a121.688 121.688 0 0 1-6.747-1.815 139.052 139.052 0 0 1-6.942-2.289 155.972 155.972 0 0 1-7.079-2.735 167.271 167.271 0 0 1-7.141-3.162 170.64 170.64 0 0 1-7.13-3.551 185.134 185.134 0 0 1-7.062-3.904 187.826 187.826 0 0 1-13.62-8.74 188.197 188.197 0 0 1-6.433-4.743 171.763 171.763 0 0 1-6.097-4.932 155.885 155.885 0 0 1-5.701-5.08 140.956 140.956 0 0 1-5.25-5.172 123.077 123.077 0 0 1-4.754-5.212 101.298 101.298 0 0 1-4.205-5.212 87.039 87.039 0 0 1-3.622-5.149 70.36 70.36 0 0 1-3-5.046 56.518 56.518 0 0 1-2.348-4.892 43.991 43.991 0 0 1-1.68-4.692 33.012 33.012 0 0 1-.982-4.441 24.994 24.994 0 0 1-.292-4.156c.023-1.336.16-2.609.412-3.824a17.232 17.232 0 0 1 1.108-3.46 15.82 15.82 0 0 1 1.8-3.06 16.412 16.412 0 0 1 2.462-2.625 19.114 19.114 0 0 1 3.114-2.175 24.25 24.25 0 0 1 3.725-1.701 31.894 31.894 0 0 1 4.302-1.205 41.171 41.171 0 0 1 4.845-.702 52.12 52.12 0 0 1 5.336-.194c1.857.017 3.782.126 5.776.32a80.25 80.25 0 0 1 6.159.828c2.114.36 4.273.799 6.484 1.324 2.212.525 4.463 1.13 6.748 1.82 2.29.686 4.605 1.445 6.947 2.284a152.42 152.42 0 0 1 7.079 2.74c2.37.982 4.753 2.038 7.136 3.157a181.608 181.608 0 0 1 14.192 7.46 186.646 186.646 0 0 1 6.918 4.23Z"/>
  <path fill="#fff" fill-opacity=".996" d="M150.446 136.662a4.93 4.93 0 0 1-.417 1.997 5.182 5.182 0 0 1-1.183 1.69 5.4 5.4 0 0 1-1.777 1.13c-.668.269-1.371.4-2.097.4a5.573 5.573 0 0 1-2.091-.4 5.406 5.406 0 0 1-1.776-1.13 5.182 5.182 0 0 1-1.183-1.69 4.93 4.93 0 0 1-.417-1.997c0-.691.137-1.359.417-1.998.28-.64.674-1.199 1.183-1.69a5.406 5.406 0 0 1 1.776-1.13 5.573 5.573 0 0 1 2.091-.4c.726 0 1.429.131 2.097.4a5.4 5.4 0 0 1 1.777 1.13c.509.491.903 1.05 1.183 1.69a4.93 4.93 0 0 1 .417 1.998Z"/>
  <path fill="#333747" fill-opacity=".996" d="M148.938 136.661c0 .566-.103 1.108-.309 1.633a4.235 4.235 0 0 1-.885 1.381 4.024 4.024 0 0 1-2.891 1.251 4.01 4.01 0 0 1-2.885-1.251 4.238 4.238 0 0 1-.886-1.381 4.423 4.423 0 0 1-.309-1.633c0-.57.103-1.113.309-1.638.206-.519.503-.982.886-1.381a4.01 4.01 0 0 1 2.885-1.25c.542 0 1.062.108 1.565.325.503.217.943.525 1.326.925.382.399.68.862.885 1.381.206.525.309 1.068.309 1.638Z"/>
  <path fill="#7DD0A7" fill-opacity=".996" d="M148.034 136.684a3.158 3.158 0 0 1-.925 2.244c-.297.302-.64.531-1.029.691a3.18 3.18 0 0 1-1.217.239c-.417 0-.822-.08-1.211-.239a3.065 3.065 0 0 1-1.028-.691 3.158 3.158 0 0 1-.926-2.244 3.154 3.154 0 0 1 .926-2.237 3.05 3.05 0 0 1 1.028-.691c.389-.16.794-.24 1.211-.24.423 0 .829.08 1.217.24.389.16.732.388 1.029.691a3.154 3.154 0 0 1 .925 2.237Z"/>
  <path fill="#fff" fill-opacity=".996" d="M151.6 136.473a5.485 5.485 0 0 1-.531 2.352 5.867 5.867 0 0 1-.64 1.068 6.753 6.753 0 0 1-1.926 1.695 7.33 7.33 0 0 1-2.508.919 7.76 7.76 0 0 1-2.719 0 7.364 7.364 0 0 1-2.509-.919 6.518 6.518 0 0 1-1.056-.765 6.351 6.351 0 0 1-.869-.93 5.867 5.867 0 0 1-.64-1.068 5.545 5.545 0 0 1-.4-1.153 5.668 5.668 0 0 1-.131-1.199c0-.405.046-.805.131-1.204.092-.394.223-.777.4-1.153a6.03 6.03 0 0 1 .64-1.062c.257-.337.543-.651.869-.936a6.458 6.458 0 0 1 1.056-.765 7.202 7.202 0 0 1 1.2-.565 7.75 7.75 0 0 1 5.336 0c.423.154.823.342 1.2.565.383.223.732.479 1.057.765.326.285.612.599.869.936.251.337.468.691.64 1.062.177.376.308.759.399 1.153.086.399.132.799.132 1.204Z"/>
  <path fill="#333747" fill-opacity=".996" d="M149.686 136.467c0 .668-.137 1.313-.4 1.93a5.011 5.011 0 0 1-1.125 1.632 5.29 5.29 0 0 1-3.68 1.473 5.24 5.24 0 0 1-1.988-.382 5.18 5.18 0 0 1-1.691-1.091 5 5 0 0 1-1.126-1.632 4.896 4.896 0 0 1 0-3.853 4.965 4.965 0 0 1 1.126-1.639 5.276 5.276 0 0 1 1.691-1.09 5.24 5.24 0 0 1 1.988-.382 5.29 5.29 0 0 1 3.68 1.472 4.977 4.977 0 0 1 1.125 1.639c.263.616.4 1.255.4 1.923Z"/>
  <path fill="#7DD0A7" fill-opacity=".996" d="M148.532 136.502c0 .496-.103.976-.309 1.432a3.779 3.779 0 0 1-.874 1.216 4.17 4.17 0 0 1-1.308.811 4.328 4.328 0 0 1-3.091 0 4.24 4.24 0 0 1-1.308-.811 3.779 3.779 0 0 1-.874-1.216 3.443 3.443 0 0 1-.303-1.432c0-.497.097-.977.303-1.433.205-.457.497-.862.874-1.216a4.147 4.147 0 0 1 1.308-.811 4.334 4.334 0 0 1 3.091 0c.491.189.931.463 1.308.811.377.354.669.759.874 1.216.206.456.309.936.309 1.433Z"/>
  <path stroke="#333747" stroke-width="4.688" d="M113.72 110.312a189.204 189.204 0 0 1-7.278 3.676 184.74 184.74 0 0 1-7.388 3.345 182.987 182.987 0 0 1-7.433 2.985c-2.48.931-4.942 1.793-7.398 2.592a165.1 165.1 0 0 1-7.302 2.175 139.633 139.633 0 0 1-7.13 1.735c-2.343.508-4.64.936-6.89 1.29-2.251.348-4.445.622-6.582.817-2.137.194-4.21.308-6.21.348a68.708 68.708 0 0 1-5.788-.137 53.394 53.394 0 0 1-5.296-.605 41.972 41.972 0 0 1-4.765-1.079 32.162 32.162 0 0 1-4.182-1.536 24.265 24.265 0 0 1-3.554-1.986 18.894 18.894 0 0 1-2.902-2.409 16.378 16.378 0 0 1-2.217-2.809 15.827 15.827 0 0 1-1.514-3.191 16.928 16.928 0 0 1-.788-3.527 20.016 20.016 0 0 1-.063-3.848c.103-1.33.32-2.7.663-4.115a33.454 33.454 0 0 1 1.388-4.35 45.468 45.468 0 0 1 2.097-4.544 59.045 59.045 0 0 1 2.788-4.692 74.32 74.32 0 0 1 3.445-4.795A91.465 91.465 0 0 1 33.5 80.8a111.378 111.378 0 0 1 4.667-4.864 126.28 126.28 0 0 1 5.205-4.823 146.958 146.958 0 0 1 5.707-4.744 165.44 165.44 0 0 1 6.142-4.618 178.662 178.662 0 0 1 13.363-8.665 186.495 186.495 0 0 1 7.096-3.968 188.645 188.645 0 0 1 22.094-10.006 176.28 176.28 0 0 1 7.404-2.592c2.457-.793 4.89-1.518 7.301-2.175a138.802 138.802 0 0 1 7.125-1.74c2.342-.503 4.639-.931 6.89-1.285 2.251-.349 4.445-.622 6.582-.817a88.28 88.28 0 0 1 6.216-.348 68.2 68.2 0 0 1 5.782.137c1.851.12 3.616.326 5.302.605 1.679.28 3.268.64 4.759 1.08 1.497.439 2.891.947 4.182 1.535a23.868 23.868 0 0 1 3.559 1.986 18.85 18.85 0 0 1 2.903 2.41 16.59 16.59 0 0 1 2.216 2.808 15.534 15.534 0 0 1 1.509 3.19 16.57 16.57 0 0 1 .794 3.528c.143 1.233.16 2.518.063 3.842a26.069 26.069 0 0 1-.669 4.121 33.74 33.74 0 0 1-1.388 4.35 44.866 44.866 0 0 1-2.097 4.544 57.23 57.23 0 0 1-2.788 4.692 74.356 74.356 0 0 1-3.445 4.795 94.112 94.112 0 0 1-4.074 4.852 111.06 111.06 0 0 1-4.667 4.864 130.588 130.588 0 0 1-5.211 4.823 146.223 146.223 0 0 1-5.702 4.744 159.628 159.628 0 0 1-6.147 4.612 167.484 167.484 0 0 1-6.525 4.447 188.194 188.194 0 0 1-13.929 8.192Z"/>
  <path fill="#333747" fill-opacity=".996" d="M107.733 81.022c0 .936-.091 1.856-.268 2.769a14.219 14.219 0 0 1-3.897 7.267 14.57 14.57 0 0 1-2.159 1.764 14.27 14.27 0 0 1-2.457 1.312c-.863.354-1.754.623-2.668.805a14.219 14.219 0 0 1-5.553 0 14.574 14.574 0 0 1-2.674-.805 14.29 14.29 0 0 1-2.457-1.313 14.56 14.56 0 0 1-2.16-1.763 13.88 13.88 0 0 1-1.765-2.152c-.52-.771-.96-1.593-1.32-2.45a14.49 14.49 0 0 1-.805-2.665 14.13 14.13 0 0 1 0-5.537c.182-.913.451-1.798.805-2.66a14.3 14.3 0 0 1 3.085-4.601 13.876 13.876 0 0 1 2.16-1.764c.777-.52 1.594-.959 2.457-1.313.868-.36 1.754-.628 2.674-.805a14.219 14.219 0 0 1 5.553 0c.914.177 1.805.445 2.668.805.863.354 1.68.794 2.457 1.313a13.886 13.886 0 0 1 2.159 1.764 14.14 14.14 0 0 1 1.771 2.146 14.273 14.273 0 0 1 2.126 5.115c.177.919.268 1.838.268 2.768Z"/>
  <path fill="#7DD0A7" fill-opacity=".996" d="M104.579 81.12c0 .69-.069 1.375-.211 2.054a10.342 10.342 0 0 1-1.646 3.802 11.063 11.063 0 0 1-1.371 1.598c-.514.491-1.074.925-1.674 1.313-.606.383-1.24.708-1.908.97-.669.269-1.36.469-2.074.6a11.333 11.333 0 0 1-4.302 0 10.79 10.79 0 0 1-2.074-.6 11.31 11.31 0 0 1-1.908-.97 11.31 11.31 0 0 1-1.674-1.313 11.076 11.076 0 0 1-1.371-1.598 10.354 10.354 0 0 1-1.646-3.802 9.966 9.966 0 0 1-.217-2.055c0-.696.074-1.381.217-2.06.137-.68.349-1.336.629-1.975.274-.64.617-1.25 1.016-1.827.406-.571.863-1.108 1.372-1.599a11.273 11.273 0 0 1 3.582-2.283 11.672 11.672 0 0 1 4.222-.805 11.677 11.677 0 0 1 4.228.805 11.257 11.257 0 0 1 3.582 2.283c.508.491.966 1.028 1.371 1.599.4.576.743 1.187 1.017 1.826a10.029 10.029 0 0 1 .84 4.036Z"/>
  <path fill="#fff" fill-opacity=".996" d="M27.673 96.966c0 .696-.137 1.358-.417 1.998a5.282 5.282 0 0 1-1.182 1.695 5.609 5.609 0 0 1-3.868 1.524 5.608 5.608 0 0 1-3.874-1.524 5.282 5.282 0 0 1-1.183-1.696 4.913 4.913 0 0 1-.417-1.997c0-.691.137-1.353.418-1.993a5.29 5.29 0 0 1 1.182-1.695 5.513 5.513 0 0 1 1.777-1.13 5.698 5.698 0 0 1 2.097-.394c.72 0 1.422.131 2.09.394a5.513 5.513 0 0 1 1.778 1.13 5.28 5.28 0 0 1 1.182 1.695c.28.64.417 1.302.417 1.993Z"/>
  <path fill="#333747" fill-opacity=".996" d="M26.165 96.966c0 .565-.103 1.113-.308 1.632a4.202 4.202 0 0 1-.886 1.387 4.03 4.03 0 0 1-1.325.925 3.904 3.904 0 0 1-3.126 0 4.025 4.025 0 0 1-1.325-.925c-.383-.4-.68-.862-.886-1.387a4.408 4.408 0 0 1-.308-1.632c0-.566.103-1.113.308-1.633.206-.525.503-.987.886-1.387s.823-.708 1.325-.925a3.906 3.906 0 0 1 3.125 0c.503.217.943.525 1.326.925.383.4.68.862.886 1.387.205.52.308 1.067.308 1.633Z"/>
  <path fill="#7DD0A7" fill-opacity=".996" d="M25.262 96.994a3.18 3.18 0 0 1-.926 2.244c-.297.297-.64.525-1.028.685-.389.16-.794.245-1.217.245a3.16 3.16 0 0 1-1.211-.245 3.123 3.123 0 0 1-1.029-.685 3.12 3.12 0 0 1-.685-1.028 3.183 3.183 0 0 1-.24-1.216 3.162 3.162 0 0 1 .925-2.243 3.162 3.162 0 0 1 2.24-.93c.423 0 .828.08 1.217.24.388.165.731.393 1.028.69a3.16 3.16 0 0 1 .926 2.243Z"/>
  <path fill="#fff" fill-opacity=".996" d="M29.364 96.32a5.61 5.61 0 0 1-.531 2.358c-.177.377-.389.73-.646 1.068a6.571 6.571 0 0 1-.862.93c-.326.285-.68.542-1.057.765a7.48 7.48 0 0 1-1.206.571 7.762 7.762 0 0 1-1.308.348 7.712 7.712 0 0 1-2.714 0 7.763 7.763 0 0 1-1.308-.348 7.477 7.477 0 0 1-1.206-.571 6.577 6.577 0 0 1-1.92-1.695 5.836 5.836 0 0 1-.645-1.068 5.29 5.29 0 0 1-.394-1.153 5.372 5.372 0 0 1 0-2.403c.085-.394.217-.782.394-1.153a5.82 5.82 0 0 1 .646-1.068c.251-.33.542-.645.862-.93a6.743 6.743 0 0 1 1.057-.765 7.519 7.519 0 0 1 1.206-.57 7.745 7.745 0 0 1 1.308-.35 7.712 7.712 0 0 1 2.714 0c.451.08.886.195 1.308.35.423.153.823.347 1.206.57.377.222.731.48 1.057.765.32.285.611.6.862.93.258.337.469.691.646 1.068a5.612 5.612 0 0 1 .531 2.352Z"/>
  <path fill="#333747" fill-opacity=".996" d="M27.445 96.32c0 .669-.131 1.308-.394 1.93a5.023 5.023 0 0 1-1.132 1.633 5.285 5.285 0 0 1-3.674 1.473 5.292 5.292 0 0 1-3.678-1.473 4.921 4.921 0 0 1-1.126-1.633 4.806 4.806 0 0 1-.4-1.93c0-.667.131-1.312.4-1.928a4.921 4.921 0 0 1 1.126-1.633 5.294 5.294 0 0 1 3.68-1.473c.684 0 1.347.126 1.987.383a5.1 5.1 0 0 1 1.685 1.09 5.023 5.023 0 0 1 1.132 1.632c.263.617.394 1.262.394 1.93Z"/>
  <path fill="#7DD0A7" fill-opacity=".996" d="M26.29 96.355c0 .497-.102.97-.308 1.433a3.54 3.54 0 0 1-.874 1.21 3.912 3.912 0 0 1-1.308.81 4.15 4.15 0 0 1-1.543.286 4.15 4.15 0 0 1-1.542-.285 3.912 3.912 0 0 1-1.309-.811 3.707 3.707 0 0 1-.874-1.21 3.478 3.478 0 0 1 0-2.866 3.73 3.73 0 0 1 .874-1.216 4.002 4.002 0 0 1 1.309-.81 4.275 4.275 0 0 1 1.542-.286c.537 0 1.051.097 1.543.286.497.188.931.462 1.308.81.383.354.674.754.874 1.216.206.457.309.936.309 1.433Z"/>
  <path fill="#393838" d="M191.764 72.848h-8.387V43.233h8.387v29.615Zm.8-38.177c0 1.54-.503 2.751-1.509 3.63-.994.885-2.165 1.325-3.519 1.325-1.36 0-2.531-.44-3.519-1.325-.994-.879-1.486-2.09-1.486-3.63 0-1.536.492-2.746 1.486-3.63.988-.88 2.159-1.325 3.519-1.325 1.354 0 2.525.445 3.519 1.324 1.006.885 1.509 2.095 1.509 3.63Zm7.099 9.567c1.417-.411 3.251-.788 5.508-1.142a44.363 44.363 0 0 1 7.107-.548c2.514 0 4.605.337 6.285 1.005 1.674.657 2.999 1.587 3.976 2.786.971 1.187 1.668 2.614 2.08 4.27.411 1.643.617 3.487.617 5.525v16.714h-8.387v-15.71c0-2.705-.36-4.623-1.074-5.753-.72-1.125-2.052-1.69-4-1.69-.611 0-1.251.034-1.919.091-.675.063-1.274.132-1.806.206v22.856h-8.387v-28.61Zm32.898-8.38 8.409-1.347v8.722h10.079v6.987H240.97v10.412c0 1.77.303 3.174.915 4.224.622 1.05 1.874 1.576 3.748 1.576.914 0 1.839-.08 2.788-.251.959-.166 1.834-.4 2.628-.708l1.188 6.53c-1.023.411-2.148.77-3.382 1.073-1.234.303-2.76.457-4.571.457-2.285 0-4.182-.314-5.69-.936-1.497-.622-2.697-1.484-3.611-2.58-.903-1.108-1.531-2.45-1.897-4.02-.354-1.58-.525-3.333-.525-5.25v-24.89Zm23.902 22.4c0-2.615.4-4.91 1.211-6.873.806-1.975 1.863-3.62 3.177-4.932a13.235 13.235 0 0 1 4.547-2.991 13.972 13.972 0 0 1 5.257-1.028c4.216 0 7.547 1.29 9.986 3.859 2.434 2.574 3.657 6.359 3.657 11.348 0 .491-.023 1.028-.069 1.621-.034.582-.062 1.09-.091 1.53h-19.059c.194 1.735 1.005 3.117 2.422 4.133 1.428 1.005 3.348 1.507 5.759 1.507 1.537 0 3.045-.137 4.525-.411 1.491-.285 2.702-.64 3.633-1.05l1.143 6.804c-.457.228-1.068.457-1.828.685-.749.228-1.577.422-2.491.594-.914.165-1.897.302-2.948.41-1.051.12-2.103.183-3.154.183-2.685 0-5.005-.4-6.97-1.187-1.965-.788-3.605-1.872-4.913-3.242-1.297-1.37-2.257-2.992-2.88-4.864-.611-1.884-.914-3.916-.914-6.096Zm19.722-3.197a8.177 8.177 0 0 0-.366-2.078 5.425 5.425 0 0 0-.959-1.804 4.93 4.93 0 0 0-1.646-1.301c-.657-.331-1.474-.503-2.445-.503-.931 0-1.737.16-2.423.48a5.06 5.06 0 0 0-1.691 1.279 5.564 5.564 0 0 0-1.028 1.826 12.102 12.102 0 0 0-.548 2.1h11.106Zm32.453-4.407a61.25 61.25 0 0 0-2.651-.57 15.896 15.896 0 0 0-3.268-.32 15.5 15.5 0 0 0-1.874.136c-.731.092-1.291.2-1.668.32v22.628h-8.387v-28.04c1.491-.53 3.257-1.027 5.302-1.483 2.057-.469 4.342-.708 6.856-.708.457 0 1.005.034 1.645.091a26.46 26.46 0 0 1 3.817.548c.64.137 1.188.297 1.645.48l-1.417 6.918Zm5.638-14.796 8.41-1.347v8.722h10.079v6.987h-10.079v10.412c0 1.77.303 3.174.914 4.224.623 1.05 1.874 1.576 3.748 1.576.914 0 1.84-.08 2.788-.251.96-.166 1.834-.4 2.629-.708l1.188 6.53c-1.023.411-2.148.77-3.382 1.073-1.234.303-2.76.457-4.571.457-2.285 0-4.182-.314-5.69-.936-1.497-.622-2.697-1.484-3.611-2.58-.903-1.108-1.531-2.45-1.897-4.02-.354-1.58-.526-3.333-.526-5.25v-24.89Zm23.902 22.4c0-2.615.4-4.91 1.211-6.873.806-1.975 1.862-3.62 3.177-4.932a13.235 13.235 0 0 1 4.547-2.991 13.97 13.97 0 0 1 5.256-1.028c4.217 0 7.548 1.29 9.987 3.859 2.434 2.574 3.657 6.359 3.657 11.348 0 .491-.023 1.028-.069 1.621-.034.582-.063 1.09-.091 1.53h-19.06c.195 1.735 1.006 3.117 2.423 4.133 1.428 1.005 3.348 1.507 5.759 1.507 1.537 0 3.045-.137 4.525-.411 1.491-.285 2.702-.64 3.633-1.05l1.143 6.804c-.457.228-1.068.457-1.828.685-.749.228-1.577.422-2.491.594-.914.165-1.897.302-2.948.41a27.83 27.83 0 0 1-3.154.183c-2.685 0-5.005-.4-6.97-1.187-1.966-.788-3.605-1.872-4.914-3.242-1.297-1.37-2.256-2.992-2.879-4.864-.611-1.884-.914-3.916-.914-6.096ZM357.9 55.06a8.177 8.177 0 0 0-.366-2.078 5.409 5.409 0 0 0-.96-1.804 4.925 4.925 0 0 0-1.645-1.301c-.657-.331-1.474-.503-2.445-.503-.931 0-1.737.16-2.423.48a5.06 5.06 0 0 0-1.691 1.279 5.564 5.564 0 0 0-1.028 1.826 12.195 12.195 0 0 0-.549 2.1H357.9Zm13.19 2.97c0-2.13.343-4.14 1.028-6.029.697-1.9 1.703-3.55 3.017-4.955 1.325-1.415 2.925-2.534 4.799-3.356 1.874-.834 4.011-1.256 6.422-1.256 1.582 0 3.028.149 4.342.434a20.65 20.65 0 0 1 3.839 1.21l-1.76 6.69a23.627 23.627 0 0 0-2.582-.776c-.948-.228-2-.343-3.154-.343-2.485 0-4.336.771-5.553 2.307-1.223 1.54-1.828 3.562-1.828 6.073 0 2.683.571 4.75 1.714 6.21 1.142 1.462 3.142 2.193 6.01 2.193 1.006 0 2.085-.091 3.245-.274a14.338 14.338 0 0 0 3.223-.913l1.188 6.872c-.977.411-2.194.765-3.657 1.074-1.462.302-3.079.456-4.844.456-2.714 0-5.045-.405-6.994-1.21-1.953-.822-3.559-1.924-4.822-3.31-1.268-1.382-2.188-3.02-2.765-4.91-.582-1.9-.868-3.962-.868-6.188Zm29.595 14.818V30.515l8.387-1.37v14.202c.56-.194 1.285-.376 2.171-.548a13.92 13.92 0 0 1 2.559-.25c2.406 0 4.411.336 6.011 1.004 1.599.656 2.868 1.587 3.816 2.786.96 1.187 1.634 2.614 2.034 4.27.394 1.643.594 3.487.594 5.525v16.714h-8.387v-15.71c0-2.705-.354-4.623-1.051-5.753-.686-1.125-1.977-1.69-3.862-1.69-.749 0-1.451.069-2.103.206-.657.136-1.251.285-1.782.433v22.514h-8.387Zm40.346-42.79v4.156c0 1.815-.149 3.79-.434 5.937a279.266 279.266 0 0 1-.914 6.461h-5.599a86.843 86.843 0 0 1-.983-6.461 52.696 52.696 0 0 1-.366-5.983v-4.11h8.296Zm15.267 36.762c1.537 0 2.628-.143 3.268-.434.64-.302.96-.89.96-1.758 0-.668-.423-1.256-1.257-1.758-.823-.514-2.08-1.096-3.771-1.735a38.595 38.595 0 0 1-3.565-1.507c-1.068-.531-1.982-1.165-2.742-1.896a7.615 7.615 0 0 1-1.737-2.603c-.411-1.016-.617-2.243-.617-3.676 0-2.785 1.028-4.983 3.085-6.599 2.068-1.61 4.914-2.42 8.524-2.42 1.794 0 3.52.16 5.165.48 1.657.32 2.977.673 3.954 1.05l-1.463 6.53a32.836 32.836 0 0 0-3.176-.89c-1.143-.274-2.434-.411-3.863-.411-2.639 0-3.953.73-3.953 2.192 0 .354.051.656.16.913.12.263.348.514.685.754.332.245.789.513 1.372.799.594.274 1.336.582 2.239.913 1.84.685 3.365 1.359 4.571 2.01 1.2.656 2.148 1.37 2.834 2.146.697.765 1.188 1.615 1.462 2.557.286.948.434 2.032.434 3.265 0 2.923-1.108 5.138-3.313 6.645-2.194 1.507-5.297 2.26-9.302 2.26-2.639 0-4.833-.228-6.581-.685-1.737-.456-2.948-.828-3.634-1.119l1.417-6.827a27.514 27.514 0 0 0 4.388 1.325c1.508.32 2.994.48 4.456.48Zm-273.219 36.99 8.41-1.347v8.722h10.078v6.987h-10.078v10.412c0 1.77.303 3.174.914 4.224.623 1.05 1.874 1.576 3.748 1.576.914 0 1.84-.08 2.788-.252.96-.165 1.834-.399 2.628-.707l1.189 6.53a25.038 25.038 0 0 1-3.383 1.073c-1.234.303-2.759.457-4.57.457-2.286 0-4.182-.314-5.691-.936-1.497-.623-2.696-1.485-3.61-2.581-.903-1.107-1.532-2.448-1.897-4.018-.354-1.581-.526-3.334-.526-5.252V103.81Zm43.351 19.979a272.309 272.309 0 0 1-2.422 8.517c-.84 2.82-1.726 5.651-2.651 8.494h-6.536a97.758 97.758 0 0 1-2.217-5.64 345.13 345.13 0 0 1-2.445-7.101 447.796 447.796 0 0 1-2.583-8.174 373.381 373.381 0 0 1-2.559-8.7h8.844c.303 1.359.628 2.831.982 4.43.349 1.587.72 3.219 1.12 4.909.394 1.69.806 3.396 1.234 5.115.44 1.706.892 3.345 1.349 4.909.485-1.644.959-3.323 1.417-5.046.468-1.736.919-3.437 1.348-5.115.44-1.673.857-3.288 1.257-4.841.394-1.552.737-3.002 1.028-4.361h6.102c.286 1.359.623 2.809 1.005 4.361.378 1.553.777 3.168 1.189 4.841.411 1.678.834 3.379 1.28 5.115.457 1.723.925 3.402 1.416 5.046.458-1.564.903-3.203 1.349-4.909.457-1.719.88-3.425 1.28-5.115.394-1.69.765-3.322 1.119-4.909.366-1.599.692-3.071.983-4.43h8.753a533.734 533.734 0 0 1-2.583 8.7 319.715 319.715 0 0 1-2.582 8.174 203.73 203.73 0 0 1-2.468 7.101c-.811 2.181-1.554 4.059-2.24 5.64h-6.536a642.833 642.833 0 0 1-2.765-8.494 155.904 155.904 0 0 1-2.468-8.517Zm24.735 2.42c0-2.614.4-4.909 1.211-6.872.806-1.975 1.863-3.619 3.177-4.932a13.227 13.227 0 0 1 4.548-2.992 13.963 13.963 0 0 1 5.256-1.027c4.216 0 7.547 1.29 9.987 3.859 2.433 2.574 3.656 6.359 3.656 11.348 0 .491-.023 1.027-.068 1.621-.035.582-.063 1.09-.092 1.53h-19.059c.194 1.735 1.005 3.117 2.422 4.133 1.428 1.004 3.348 1.507 5.759 1.507 1.537 0 3.045-.137 4.525-.411 1.491-.286 2.702-.64 3.634-1.051l1.142 6.805c-.457.228-1.068.456-1.828.685a23.25 23.25 0 0 1-2.491.593c-.914.166-1.897.303-2.948.411-1.051.12-2.103.183-3.154.183-2.685 0-5.005-.399-6.97-1.187-1.965-.788-3.605-1.873-4.913-3.243-1.297-1.37-2.257-2.991-2.88-4.863-.611-1.884-.914-3.916-.914-6.097Zm19.722-3.196a8.22 8.22 0 0 0-.365-2.078 5.432 5.432 0 0 0-.96-1.804 4.916 4.916 0 0 0-1.646-1.301c-.657-.331-1.474-.503-2.445-.503-.931 0-1.737.16-2.422.48a5.05 5.05 0 0 0-1.691 1.278 5.56 5.56 0 0 0-1.029 1.827 12.184 12.184 0 0 0-.548 2.101h11.106Zm26.421 18.358c-2.439-.046-4.422-.314-5.942-.799-1.525-.486-2.731-1.171-3.61-2.055-.869-.879-1.463-1.947-1.783-3.197-.32-1.262-.48-2.683-.48-4.27V98.467l8.387-1.37v32.263c0 .765.052 1.45.16 2.055.12.594.343 1.096.663 1.507.32.411.777.748 1.371 1.005.606.263 1.417.428 2.423.502l-1.189 6.942Zm14.037-.571c-1.919-3.756-3.862-8.152-5.827-13.175-1.965-5.023-3.834-10.503-5.599-16.44h8.89a144.72 144.72 0 0 0 1.325 4.749c.514 1.707 1.04 3.437 1.577 5.184a323.675 323.675 0 0 0 1.646 5.114 106.155 106.155 0 0 0 1.599 4.498 342.539 342.539 0 0 0 1.577-4.498c.56-1.655 1.12-3.362 1.668-5.114a293.681 293.681 0 0 0 1.577-5.184 158.54 158.54 0 0 0 1.326-4.749h8.684c-1.771 5.937-3.645 11.417-5.622 16.44-1.965 5.023-3.908 9.419-5.827 13.175h-6.994Zm21.535-14.591c0-2.614.4-4.909 1.211-6.872.806-1.975 1.863-3.619 3.177-4.932a13.233 13.233 0 0 1 4.547-2.992 13.972 13.972 0 0 1 5.257-1.027c4.216 0 7.547 1.29 9.986 3.859 2.434 2.574 3.657 6.359 3.657 11.348 0 .491-.023 1.027-.069 1.621-.034.582-.062 1.09-.091 1.53h-19.06c.195 1.735 1.006 3.117 2.423 4.133 1.428 1.004 3.348 1.507 5.759 1.507 1.537 0 3.045-.137 4.525-.411 1.491-.286 2.702-.64 3.633-1.051l1.143 6.805c-.457.228-1.068.456-1.828.685-.749.228-1.577.422-2.491.593-.914.166-1.897.303-2.948.411-1.051.12-2.103.183-3.154.183-2.685 0-5.005-.399-6.97-1.187-1.965-.788-3.605-1.873-4.914-3.243-1.296-1.37-2.256-2.991-2.879-4.863-.611-1.884-.914-3.916-.914-6.097Zm19.722-3.196a8.177 8.177 0 0 0-.366-2.078 5.43 5.43 0 0 0-.959-1.804 4.916 4.916 0 0 0-1.646-1.301c-.657-.331-1.474-.503-2.445-.503-.931 0-1.737.16-2.423.48a5.06 5.06 0 0 0-1.691 1.278 5.576 5.576 0 0 0-1.028 1.827 12.187 12.187 0 0 0-.549 2.101h11.107Z"/>
</svg>
