<svg xmlns="http://www.w3.org/2000/svg" xmlns:xlink="http://www.w3.org/1999/xlink" width="835" height="163" fill="none" viewBox="0 0 835 163">
  <g filter="url(#a)">
    <rect width="158.522" height="827.151" fill="url(#b)" rx="79.261" transform="matrix(-.0009 1 -1 -.00051 833 2.428)"/>
    <rect width="160.522" height="829.151" x="1.001" y="-.999" stroke="url(#c)" stroke-width="2" rx="80.261" transform="matrix(-.0009 1 -1 -.00051 833.002 .428)"/>
    <rect width="160.522" height="829.151" x="1.001" y="-.999" stroke="url(#d)" stroke-width="2" rx="80.261" transform="matrix(-.0009 1 -1 -.00051 833.002 .428)"/>
    <rect width="160.522" height="829.151" x="1.001" y="-.999" stroke="url(#e)" stroke-opacity=".5" stroke-width="2" rx="80.261" transform="matrix(-.0009 1 -1 -.00051 833.002 .428)"/>
  </g>
  <rect width="158.522" height="809.698" fill="url(#f)" fill-opacity=".1" rx="79.261" style="mix-blend-mode:overlay" transform="matrix(-.0009 1 -1 -.00051 809.84 2.417)"/>
  <g filter="url(#g)">
    <path fill="#000" fill-opacity=".7" d="M108.903 74.172h-5.319c-.204-1.137-.585-2.137-1.142-3a8.376 8.376 0 0 0-2.045-2.2 8.815 8.815 0 0 0-2.71-1.363 10.58 10.58 0 0 0-3.154-.46c-2.011 0-3.812.506-5.403 1.517-1.58 1.011-2.83 2.494-3.75 4.449-.91 1.954-1.364 4.34-1.364 7.159 0 2.84.455 5.239 1.364 7.193.92 1.955 2.176 3.432 3.767 4.432 1.59 1 3.38 1.5 5.37 1.5a10.9 10.9 0 0 0 3.136-.443c1-.307 1.903-.756 2.71-1.347a8.25 8.25 0 0 0 2.045-2.165c.568-.863.96-1.852 1.176-2.966l5.319.018a14.267 14.267 0 0 1-1.654 4.738 13.074 13.074 0 0 1-3.119 3.716c-1.262 1.034-2.705 1.835-4.33 2.403-1.625.569-3.397.853-5.318.853-3.023 0-5.716-.716-8.08-2.148-2.363-1.443-4.227-3.506-5.59-6.187-1.353-2.682-2.029-5.881-2.029-9.597 0-3.727.682-6.926 2.046-9.597 1.363-2.681 3.227-4.738 5.59-6.17 2.364-1.443 5.052-2.165 8.063-2.165 1.852 0 3.58.267 5.182.801a13.682 13.682 0 0 1 4.347 2.319 12.753 12.753 0 0 1 3.187 3.715c.841 1.455 1.409 3.12 1.705 4.995Zm16.441 24.085c-2.454 0-4.596-.563-6.426-1.688-1.829-1.125-3.25-2.698-4.261-4.721-1.011-2.023-1.517-4.386-1.517-7.091 0-2.716.506-5.091 1.517-7.125s2.432-3.614 4.261-4.739c1.83-1.125 3.972-1.687 6.426-1.687 2.455 0 4.597.562 6.427 1.687 1.829 1.125 3.25 2.705 4.261 4.739 1.011 2.034 1.517 4.409 1.517 7.125 0 2.704-.506 5.068-1.517 7.09-1.011 2.024-2.432 3.597-4.261 4.722-1.83 1.125-3.972 1.688-6.427 1.688Zm.017-4.279c1.591 0 2.91-.42 3.955-1.26 1.045-.842 1.818-1.961 2.318-3.359.512-1.397.767-2.937.767-4.62 0-1.67-.255-3.204-.767-4.601-.5-1.41-1.273-2.54-2.318-3.392-1.045-.853-2.364-1.279-3.955-1.279-1.602 0-2.931.426-3.988 1.279-1.046.852-1.824 1.983-2.335 3.392-.5 1.397-.75 2.931-.75 4.602 0 1.682.25 3.222.75 4.62.511 1.397 1.289 2.516 2.335 3.357 1.057.841 2.386 1.261 3.988 1.261Zm22.494-11.795v15.545h-5.097V71.547h4.892v4.261h.324a7.481 7.481 0 0 1 2.829-3.34c1.296-.842 2.927-1.262 4.892-1.262 1.785 0 3.347.375 4.688 1.125 1.341.738 2.381 1.84 3.119 3.307.739 1.465 1.108 3.278 1.108 5.437v16.653h-5.096v-16.04c0-1.897-.495-3.38-1.483-4.448-.989-1.08-2.347-1.62-4.074-1.62-1.182 0-2.233.256-3.154.768-.909.511-1.63 1.261-2.164 2.25-.523.977-.784 2.159-.784 3.545Zm28.207 0v15.545h-5.097V71.547h4.892v4.261h.324a7.49 7.49 0 0 1 2.83-3.34c1.295-.842 2.926-1.262 4.892-1.262 1.784 0 3.347.375 4.687 1.125 1.341.738 2.381 1.84 3.12 3.307.738 1.465 1.108 3.278 1.108 5.437v16.653h-5.097v-16.04c0-1.897-.494-3.38-1.483-4.448-.988-1.08-2.346-1.62-4.074-1.62-1.182 0-2.233.256-3.153.768-.909.511-1.631 1.261-2.165 2.25-.523.977-.784 2.159-.784 3.545Zm34.395 16.074c-2.58 0-4.801-.551-6.665-1.654-1.852-1.113-3.284-2.676-4.295-4.687-1-2.023-1.5-4.392-1.5-7.108 0-2.682.5-5.045 1.5-7.09 1.011-2.046 2.42-3.643 4.227-4.79 1.818-1.148 3.943-1.722 6.375-1.722 1.477 0 2.909.244 4.296.733a10.401 10.401 0 0 1 3.732 2.3c1.103 1.046 1.972 2.404 2.608 4.075.637 1.659.955 3.676.955 6.05v1.808h-20.813v-3.819h15.819c0-1.34-.273-2.528-.819-3.562a6.18 6.18 0 0 0-2.301-2.472c-.977-.602-2.125-.903-3.443-.903-1.432 0-2.682.352-3.75 1.057a7.086 7.086 0 0 0-2.454 2.727c-.569 1.114-.853 2.324-.853 3.63v2.984c0 1.75.307 3.238.921 4.466.625 1.227 1.494 2.164 2.608 2.812 1.113.636 2.415.955 3.903.955.966 0 1.847-.137 2.642-.41a5.706 5.706 0 0 0 2.063-1.26c.579-.558 1.022-1.245 1.329-2.063l4.824.87a8.73 8.73 0 0 1-2.079 3.732c-.989 1.057-2.233 1.88-3.733 2.472-1.489.58-3.188.869-5.097.869Zm27.436 0c-2.534 0-4.716-.574-6.545-1.722-1.818-1.159-3.216-2.755-4.193-4.79-.978-2.034-1.466-4.363-1.466-6.988 0-2.66.5-5.006 1.5-7.04 1-2.045 2.409-3.642 4.227-4.79 1.818-1.147 3.96-1.721 6.426-1.721 1.989 0 3.761.37 5.318 1.108 1.557.727 2.813 1.75 3.767 3.068.966 1.318 1.54 2.858 1.722 4.62h-4.96c-.273-1.228-.898-2.285-1.875-3.171-.966-.887-2.262-1.33-3.887-1.33-1.42 0-2.664.375-3.733 1.125-1.056.739-1.88 1.796-2.471 3.17-.591 1.364-.887 2.978-.887 4.842 0 1.909.29 3.556.87 4.943.579 1.386 1.397 2.46 2.454 3.221 1.068.762 2.324 1.142 3.767 1.142.966 0 1.841-.176 2.625-.528a5.357 5.357 0 0 0 1.995-1.551c.545-.67.926-1.477 1.142-2.42h4.96c-.182 1.693-.733 3.204-1.654 4.534-.92 1.33-2.153 2.374-3.698 3.136-1.534.761-3.336 1.142-5.404 1.142Zm27.948-26.71v4.09H251.54v-4.09h14.301Zm-10.466-6.273h5.096v24.767c0 .989.148 1.733.444 2.233.295.489.676.824 1.142 1.006.477.17.994.255 1.551.255a5.95 5.95 0 0 0 1.074-.085c.306-.057.545-.102.716-.136l.92 4.21c-.295.114-.716.227-1.261.34-.546.126-1.228.194-2.046.205-1.341.023-2.591-.216-3.75-.716a6.432 6.432 0 0 1-2.812-2.318c-.716-1.045-1.074-2.358-1.074-3.937V65.274Zm33.523 32.454-7.705-26.181h5.267l5.131 19.227h.256l5.147-19.227h5.267l5.114 19.142h.256l5.096-19.142h5.267l-7.687 26.181h-5.199l-5.318-18.903h-.392l-5.318 18.903h-5.182Zm33.453 0V71.547h5.097v26.181h-5.097Zm2.574-30.221c-.886 0-1.648-.296-2.284-.886-.625-.603-.938-1.319-.938-2.148 0-.841.313-1.557.938-2.148a3.206 3.206 0 0 1 2.284-.903c.886 0 1.642.3 2.267.903.636.591.954 1.307.954 2.148 0 .83-.318 1.545-.954 2.148-.625.59-1.381.886-2.267.886Zm21.121 4.04v4.09h-14.301v-4.09h14.301Zm-10.466-6.273h5.096v24.767c0 .989.148 1.733.444 2.233.295.489.676.824 1.142 1.006.477.17.994.255 1.551.255a5.95 5.95 0 0 0 1.074-.085c.306-.057.545-.102.716-.136l.92 4.21c-.295.114-.716.227-1.261.34-.546.126-1.228.194-2.046.205-1.341.023-2.591-.216-3.75-.716a6.432 6.432 0 0 1-2.812-2.318c-.716-1.045-1.074-2.358-1.074-3.937V65.274Zm21.283 16.91v15.544h-5.097V62.82h5.028v12.99h.324c.614-1.41 1.551-2.53 2.813-3.359 1.261-.83 2.909-1.244 4.943-1.244 1.795 0 3.364.37 4.705 1.108 1.352.738 2.397 1.84 3.136 3.307.75 1.454 1.125 3.272 1.125 5.454v16.653h-5.097v-16.04c0-1.92-.494-3.408-1.483-4.465-.988-1.068-2.363-1.602-4.125-1.602-1.204 0-2.284.255-3.238.767-.943.511-1.688 1.261-2.233 2.25-.534.977-.801 2.159-.801 3.545Zm35.93-19.365h6.392l11.114 27.137h.409l11.114-27.137h6.392v34.91h-5.012V72.466h-.324l-10.295 25.21h-4.159L398.128 72.45h-.323v25.278h-5.012V62.82Zm53.473 35.438c-2.579 0-4.801-.551-6.664-1.654-1.853-1.113-3.284-2.676-4.296-4.687-1-2.023-1.5-4.392-1.5-7.108 0-2.682.5-5.045 1.5-7.09 1.012-2.046 2.421-3.643 4.227-4.79 1.819-1.148 3.944-1.722 6.375-1.722 1.478 0 2.91.244 4.296.733a10.405 10.405 0 0 1 3.733 2.3c1.102 1.046 1.971 2.404 2.608 4.075.636 1.659.954 3.676.954 6.05v1.808h-20.812v-3.819h15.818c0-1.34-.273-2.528-.818-3.562a6.195 6.195 0 0 0-2.301-2.472c-.978-.602-2.125-.903-3.443-.903-1.432 0-2.682.352-3.75 1.057a7.097 7.097 0 0 0-2.455 2.727c-.568 1.114-.852 2.324-.852 3.63v2.984c0 1.75.307 3.238.92 4.466.625 1.227 1.494 2.164 2.608 2.812 1.114.636 2.415.955 3.904.955.965 0 1.846-.137 2.642-.41a5.702 5.702 0 0 0 2.062-1.26c.58-.558 1.023-1.245 1.33-2.063l4.823.87a8.73 8.73 0 0 1-2.079 3.732c-.989 1.057-2.233 1.88-3.733 2.472-1.489.58-3.188.869-5.097.869Zm28.63-26.71v4.09h-14.301v-4.09h14.301Zm-10.466-6.273h5.096v24.767c0 .989.148 1.733.444 2.233.295.489.676.824 1.142 1.006.477.17.994.255 1.551.255a5.95 5.95 0 0 0 1.074-.085c.306-.057.545-.102.716-.136l.92 4.21c-.295.114-.716.227-1.261.34-.546.126-1.228.194-2.046.205-1.341.023-2.591-.216-3.75-.716a6.432 6.432 0 0 1-2.812-2.318c-.716-1.045-1.074-2.358-1.074-3.937V65.274Zm23.243 33.034c-1.659 0-3.159-.307-4.5-.92-1.341-.625-2.404-1.529-3.188-2.71-.772-1.182-1.159-2.631-1.159-4.347 0-1.478.284-2.693.853-3.648a6.287 6.287 0 0 1 2.301-2.267 12.015 12.015 0 0 1 3.238-1.261c1.194-.284 2.409-.5 3.648-.648l3.818-.443c.978-.125 1.688-.324 2.131-.597.443-.273.665-.716.665-1.33v-.119c0-1.488-.421-2.642-1.262-3.46-.829-.818-2.068-1.227-3.716-1.227-1.715 0-3.068.38-4.056 1.142-.978.75-1.654 1.585-2.029 2.505l-4.79-1.09c.569-1.591 1.398-2.875 2.489-3.853a10.09 10.09 0 0 1 3.801-2.147 14.844 14.844 0 0 1 4.517-.682c1.046 0 2.154.125 3.324.375a9.73 9.73 0 0 1 3.307 1.33c1.034.647 1.881 1.573 2.54 2.778.659 1.193.988 2.744.988 4.653v17.386h-4.977V94.15h-.204c-.33.66-.824 1.307-1.483 1.943-.66.636-1.506 1.165-2.54 1.585-1.034.42-2.273.631-3.716.631Zm1.108-4.09c1.409 0 2.613-.28 3.613-.836 1.012-.557 1.779-1.284 2.302-2.182a5.66 5.66 0 0 0 .801-2.915V84.91c-.182.182-.534.353-1.057.512a16.7 16.7 0 0 1-1.756.392c-.659.102-1.301.199-1.926.29-.625.08-1.148.147-1.568.204-.989.125-1.892.335-2.71.63-.807.296-1.455.722-1.943 1.28-.478.545-.716 1.272-.716 2.181 0 1.261.466 2.216 1.397 2.864.932.636 2.12.954 3.563.954Zm18.121 3.51V71.547h4.892v4.261h.324c.545-1.443 1.437-2.568 2.676-3.375 1.238-.818 2.721-1.227 4.449-1.227 1.75 0 3.215.409 4.397 1.227 1.193.818 2.074 1.943 2.642 3.375h.273c.625-1.398 1.619-2.511 2.983-3.34 1.364-.842 2.989-1.262 4.875-1.262 2.375 0 4.313.744 5.813 2.233 1.511 1.488 2.267 3.733 2.267 6.733v17.556h-5.097V80.65c0-1.773-.483-3.057-1.449-3.852-.966-.796-2.119-1.194-3.46-1.194-1.659 0-2.949.512-3.869 1.535-.921 1.011-1.381 2.312-1.381 3.903V97.73h-5.08V80.325c0-1.42-.443-2.562-1.329-3.426-.887-.864-2.04-1.296-3.46-1.296-.966 0-1.858.256-2.677.768-.806.5-1.46 1.198-1.96 2.096-.488.898-.733 1.938-.733 3.12v16.141h-5.096Zm49.561.58c-1.659 0-3.159-.307-4.5-.92-1.341-.625-2.404-1.529-3.188-2.71-.772-1.182-1.159-2.631-1.159-4.347 0-1.478.284-2.693.853-3.648a6.287 6.287 0 0 1 2.301-2.267 12.015 12.015 0 0 1 3.238-1.261c1.193-.284 2.409-.5 3.648-.648l3.818-.443c.977-.125 1.688-.324 2.131-.597.443-.273.665-.716.665-1.33v-.119c0-1.488-.421-2.642-1.262-3.46-.829-.818-2.068-1.227-3.716-1.227-1.716 0-3.068.38-4.056 1.142-.978.75-1.654 1.585-2.029 2.505l-4.79-1.09c.569-1.591 1.398-2.875 2.489-3.853a10.09 10.09 0 0 1 3.801-2.147 14.844 14.844 0 0 1 4.517-.682c1.046 0 2.154.125 3.324.375a9.73 9.73 0 0 1 3.307 1.33c1.034.647 1.881 1.573 2.54 2.778.659 1.193.988 2.744.988 4.653v17.386h-4.977V94.15h-.205c-.329.66-.823 1.307-1.482 1.943-.66.636-1.506 1.165-2.54 1.585-1.034.42-2.273.631-3.716.631Zm1.108-4.09c1.409 0 2.613-.28 3.613-.836 1.012-.557 1.779-1.284 2.302-2.182a5.66 5.66 0 0 0 .801-2.915V84.91c-.182.182-.534.353-1.057.512a16.7 16.7 0 0 1-1.756.392c-.659.102-1.301.199-1.926.29-.625.08-1.148.147-1.568.204-.989.125-1.892.335-2.71.63-.807.296-1.455.722-1.944 1.28-.477.545-.715 1.272-.715 2.181 0 1.261.465 2.216 1.397 2.864.932.636 2.12.954 3.563.954Zm37.74-16.28-4.619.819a5.48 5.48 0 0 0-.921-1.688c-.409-.534-.966-.971-1.67-1.312-.705-.341-1.585-.511-2.642-.511-1.443 0-2.648.323-3.614.971-.966.636-1.449 1.46-1.449 2.472 0 .875.324 1.58.972 2.113.648.534 1.693.972 3.136 1.313l4.159.954c2.409.557 4.205 1.415 5.387 2.574 1.181 1.16 1.772 2.665 1.772 4.517 0 1.569-.454 2.966-1.363 4.194-.898 1.215-2.154 2.17-3.767 2.863-1.603.693-3.461 1.04-5.574 1.04-2.932 0-5.324-.625-7.176-1.875-1.853-1.261-2.989-3.051-3.409-5.37l4.926-.75c.307 1.285.937 2.256 1.892 2.915.954.648 2.199.972 3.733.972 1.67 0 3.005-.347 4.005-1.04 1-.704 1.5-1.562 1.5-2.574 0-.818-.306-1.505-.92-2.062-.602-.557-1.528-.977-2.778-1.261l-4.432-.972c-2.443-.557-4.25-1.443-5.421-2.66-1.159-1.215-1.738-2.755-1.738-4.618 0-1.546.431-2.898 1.295-4.057.864-1.16 2.057-2.063 3.58-2.71 1.522-.66 3.267-.99 5.233-.99 2.829 0 5.056.614 6.681 1.842 1.625 1.216 2.699 2.846 3.222 4.892Zm10.323 10.91-.035-6.222h.887l10.432-11.08h6.102L611.122 84.16h-.801l-4.687 4.688Zm-4.688 8.88V62.82h5.097v34.91h-5.097Zm16.534 0-9.375-12.443 3.511-3.562 12.12 16.005h-6.256Z" shape-rendering="crispEdges"/>
  </g>
  <path fill="url(#h)" d="M655 23.507h100v113H655z"/>
  <defs>
    <radialGradient id="c" cx="0" cy="0" r="1" gradientTransform="matrix(-157.39115 798.39322 -689.89634 -136.00263 158.522 9.586)" gradientUnits="userSpaceOnUse">
      <stop stop-color="#151515" stop-opacity=".5"/>
      <stop offset=".969" stop-color="#151515" stop-opacity="0"/>
    </radialGradient>
    <radialGradient id="d" cx="0" cy="0" r="1" gradientTransform="rotate(78.986 -7.254 8.127) scale(810.585 687.176)" gradientUnits="userSpaceOnUse">
      <stop stop-color="#fff" stop-opacity=".7"/>
      <stop offset="1" stop-color="#FDFDFD" stop-opacity="0"/>
    </radialGradient>
    <radialGradient id="e" cx="0" cy="0" r="1" gradientTransform="matrix(154.16555 783.32758 -675.136 132.87252 2.813 16.433)" gradientUnits="userSpaceOnUse">
      <stop stop-color="#B2A4FF" stop-opacity="0"/>
      <stop offset="1" stop-color="#FEDFB6"/>
    </radialGradient>
    <pattern id="f" width="1.388" height=".272" patternContentUnits="objectBoundingBox">
      <use xlink:href="#i" transform="scale(.0063 .00124)"/>
    </pattern>
    <pattern id="h" width="1" height="1" patternContentUnits="objectBoundingBox">
      <use xlink:href="#j" transform="matrix(.00147 0 0 .0013 -.065 0)"/>
    </pattern>
    <filter id="a" width="871.151" height="202.866" x="-16.222" y="-19.956" color-interpolation-filters="sRGB" filterUnits="userSpaceOnUse">
      <feFlood flood-opacity="0" result="BackgroundImageFix"/>
      <feGaussianBlur in="BackgroundImage" stdDeviation="10"/>
      <feComposite in2="SourceAlpha" operator="in" result="effect1_backgroundBlur_62_23"/>
      <feBlend in="SourceGraphic" in2="effect1_backgroundBlur_62_23" result="shape"/>
    </filter>
    <filter id="g" width="552.952" height="44.886" x="74.783" y="61.422" color-interpolation-filters="sRGB" filterUnits="userSpaceOnUse">
      <feFlood flood-opacity="0" result="BackgroundImageFix"/>
      <feColorMatrix in="SourceAlpha" result="hardAlpha" values="0 0 0 0 0 0 0 0 0 0 0 0 0 0 0 0 0 0 127 0"/>
      <feOffset dy="4"/>
      <feGaussianBlur stdDeviation="2"/>
      <feComposite in2="hardAlpha" operator="out"/>
      <feColorMatrix values="0 0 0 0 0 0 0 0 0 0 0 0 0 0 0 0 0 0 0.25 0"/>
      <feBlend in2="BackgroundImageFix" result="effect1_dropShadow_62_23"/>
      <feBlend in="SourceGraphic" in2="effect1_dropShadow_62_23" result="shape"/>
    </filter>
    <linearGradient id="b" x1="2.673" x2="210.06" y1="24.65" y2="35.815" gradientUnits="userSpaceOnUse">
      <stop stop-color="#EDF12D"/>
      <stop offset="1" stop-color="#FCFF54" stop-opacity="0"/>
    </linearGradient>
  </defs>
</svg>
